<?xml version="1.0" encoding="UTF-8"?>
<svg id="a" xmlns="http://www.w3.org/2000/svg" viewBox="0 0 527 322">
  <defs>
    <style>
      .cls-1 {
        fill: #bebebe;
        stroke: #000;
        stroke-miterlimit: 10;
        stroke-width: 4px;
      }
    </style>
  </defs>
  <path id="cloud" class="cls-1" d="M525,224.5c0,26.37-10.69,50.24-27.97,67.53-17.29,17.28-41.16,27.97-67.53,27.97H97.5c-52.74,0-95.5-42.76-95.5-95.5,0-26.37,10.69-50.24,27.97-67.53,13.63-13.63,31.36-23.16,51.18-26.57-.76-5.25-1.15-10.61-1.15-16.07,0-62.04,50.29-112.33,112.33-112.33,43.57,0,81.34,24.8,99.98,61.05,13.33-13.03,31.57-21.05,51.69-21.05,40.87,0,74,33.13,74,74,0,4.44-.39,8.78-1.14,13h12.64c52.74,0,95.5,42.76,95.5,95.5Z"/>
</svg>