<?xml version="1.0" encoding="UTF-8"?>
<svg id="a" data-name="Layer 1" xmlns="http://www.w3.org/2000/svg" viewBox="0 0 527 518.76">
  <path d="M525,224.5c0,26.37-10.69,50.24-27.97,67.53-17.29,17.28-41.16,27.97-67.53,27.97H97.5c-52.74,0-95.5-42.76-95.5-95.5,0-3.99.24-7.92.73-11.77,2.38-19.47,10.64-37.12,22.94-51.15,1.37-1.58,2.81-3.12,4.3-4.61,7.33-7.32,15.82-13.46,25.2-18.09h.01s.01-.01.01-.01c.56-.29,1.12-.56,1.69-.81,7.59-3.59,15.74-6.19,24.27-7.66-.76-5.25-1.15-10.61-1.15-16.07,0-3.07.12-6.11.37-9.11,3.34-41.74,29.51-77.04,66.01-93.42,7.54-3.39,15.51-5.96,23.82-7.62,7.15-1.43,14.55-2.18,22.13-2.18,9.84,0,19.38,1.26,28.47,3.64,31.18,8.14,57.08,29.34,71.51,57.41,6.04-5.91,13.1-10.79,20.88-14.35,9.38-4.3,19.81-6.7,30.81-6.7,36.78,0,67.3,26.84,73.03,62,.64,3.9.97,7.91.97,12,0,4.44-.39,8.78-1.14,13h12.64c52.74,0,95.5,42.76,95.5,95.5Z" style="fill: #29abe2; stroke: #000; stroke-miterlimit: 10; stroke-width: 4px;"/>
  <rect x="34.6" y="347.3" width="40.01" height="173.66" rx="20" ry="20" transform="translate(154.98 8.25) rotate(20.43)" style="fill: #29abe2; stroke: #000; stroke-miterlimit: 10; stroke-width: 4px;"/>
  <rect x="410.5" y="347.3" width="40.01" height="173.66" rx="20" ry="20" transform="translate(178.63 -122.97) rotate(20.43)" style="fill: #29abe2; stroke: #000; stroke-miterlimit: 10; stroke-width: 4px;"/>
  <rect x="285.2" y="347.3" width="40.01" height="173.66" rx="20" ry="20" transform="translate(170.75 -79.23) rotate(20.43)" style="fill: #29abe2; stroke: #000; stroke-miterlimit: 10; stroke-width: 4px;"/>
  <rect x="159.9" y="347.3" width="40.01" height="173.66" rx="20" ry="20" transform="translate(162.86 -35.49) rotate(20.43)" style="fill: #29abe2; stroke: #000; stroke-miterlimit: 10; stroke-width: 4px;"/>
</svg>