<?xml version="1.0" encoding="UTF-8"?>
<svg xmlns="http://www.w3.org/2000/svg" viewBox="0 0 572.88 463.51">
  <defs>
    <style>
      .cls-1 {
        fill: #92c0d6;
      }

      .cls-1, .cls-2, .cls-3 {
        stroke: #000;
      }

      .cls-1, .cls-3 {
        stroke-miterlimit: 10;
        stroke-width: 4px;
      }

      .cls-2 {
        fill: #5a7785;
        stroke-miterlimit: 10;
        stroke-width: 4px;
      }

      .cls-3 {
        fill: #769cad;
      }
    </style>
  </defs>
  <g id="bottom-fog-line">
    <path class="cls-2" d="M506.02,461.15l-96,.17c-8.84.02-16.01-7.14-16.03-15.97h0c-.02-8.84,7.14-16.01,15.97-16.03l96-.17c8.84-.02,16.01,7.14,16.03,15.97h0c.02,8.84-7.14,16.01-15.97,16.03Z"/>
    <path class="cls-2" d="M342.03,460.95l-324,.57c-8.84.02-16.01-7.14-16.03-15.97h0c-.02-8.84,7.14-16.01,15.97-16.03l324-.57c8.84-.02,16.01,7.14,16.03,15.97h0c.02,8.84-7.14,16.01-15.97,16.03Z"/>
  </g>
  <g id="a">
    <g id="top-fog-line">
      <path class="cls-3" d="M66.88,365.5h96c8.84,0,16,7.16,16,16h0c0,8.84-7.16,16-16,16h-96c-8.84,0-16-7.16-16-16h0c0-8.84,7.16-16,16-16Z"/>
      <path class="cls-3" d="M230.88,365.5h324c8.84,0,16,7.16,16,16h0c0,8.84-7.16,16-16,16H230.88c-8.84,0-16-7.16-16-16h0c0-8.84,7.16-16,16-16Z"/>
    </g>
    <path id="cloud" class="cls-1" d="M545.88,189.5c0,56.9-42.63,103.85-97.69,110.64-4.52.57-9.13.86-13.81.86-2.34,0-4.66-.07-6.96-.23-.05.08-.12.15-.18.23-20.64,25.04-51.88,41-86.86,41s-66.22-15.96-86.86-41h-82.19c-.65,0-1.29-.02-1.92-.06-1.34.04-2.68.06-4.03.06-82.57,0-149.5-66.93-149.5-149.5S82.81,2,165.38,2c42.21,0,80.33,17.49,107.5,45.62,11.17-3.65,23.11-5.62,35.5-5.62,35.88,0,67.91,16.5,88.89,42.34,11.61-4.11,24.1-6.34,37.11-6.34,61.58,0,111.5,49.92,111.5,111.5Z"/>
  </g>
</svg>