<?xml version="1.0" encoding="UTF-8"?>
<svg id="a" data-name="Layer 1" xmlns="http://www.w3.org/2000/svg" viewBox="0 0 572.89 464.77">
  <path d="M545.89,189.5c0,56.9-42.63,103.85-97.69,110.64-4.52.57-9.13.86-13.81.86-2.34,0-4.66-.07-6.96-.23-.05.08-.12.15-.18.23-20.64,25.04-51.88,41-86.86,41s-66.22-15.96-86.86-41h-82.19c-.65,0-1.29-.02-1.92-.06-1.34.04-2.68.06-4.03.06-82.57,0-149.5-66.93-149.5-149.5S82.82,2,165.39,2c42.21,0,80.33,17.49,107.5,45.62,11.17-3.65,23.11-5.62,35.5-5.62,35.88,0,67.91,16.5,88.89,42.34,11.61-4.11,24.1-6.34,37.11-6.34,61.58,0,111.5,49.92,111.5,111.5Z" style="fill: #a67c52; stroke: #000; stroke-miterlimit: 10; stroke-width: 4px;"/>
  <path d="M427.43,300.77c2.3.16,4.62.23,6.96.23h-7.14c.06-.08.13-.15.18-.23Z" style="fill: #a67c52; stroke: #000; stroke-miterlimit: 10; stroke-width: 4px;"/>
  <path d="M448.2,300.14c-2.5.57-5.09.86-7.76.86h-6.05c4.68,0,9.29-.29,13.81-.86Z" style="fill: #a67c52; stroke: #000; stroke-miterlimit: 10; stroke-width: 4px;"/>
  <rect x="50.89" y="368" width="128" height="32" rx="16" ry="16" style="fill: #a67c52; stroke: #000; stroke-miterlimit: 10; stroke-width: 4px;"/>
  <rect x="214.89" y="366" width="356" height="32" rx="16" ry="16" style="fill: #a67c52; stroke: #000; stroke-miterlimit: 10; stroke-width: 4px;"/>
  <rect x="394" y="427.99" width="128" height="32" rx="16" ry="16" transform="translate(916.78 887.17) rotate(179.9)" style="fill: #a67c52; stroke: #000; stroke-miterlimit: 10; stroke-width: 4px;"/>
  <rect x="2" y="430.48" width="356" height="32" rx="16" ry="16" transform="translate(360.79 892.65) rotate(179.9)" style="fill: #a67c52; stroke: #000; stroke-miterlimit: 10; stroke-width: 4px;"/>
</svg>