<?xml version="1.0" encoding="UTF-8"?>
<svg id="a" xmlns="http://www.w3.org/2000/svg" viewBox="0 0 650 637.13">
  <defs>
    <style>
      .cls-1 {
        fill: #696969;
        stroke: #000;
        stroke-miterlimit: 10;
        stroke-width: 4px;
      }

      .cls-2 {
        opacity: .96;
      }

      .cls-3, .cls-4 {
        stroke-width: 0px;
      }

      .cls-4 {
        fill: #ff0;
      }
    </style>
  </defs>
  <path id="cloud" class="cls-1" d="M648,276.83c0,32.57-13.2,62.06-34.55,83.41s-50.84,34.55-83.41,34.55h-141.93l61.96-131.67c16.48-35.04-26.89-67.51-55.86-41.83l-195.75,173.5h-78.5c-65.14,0-117.96-52.82-117.96-117.96,0-32.57,13.2-62.06,34.55-83.41,16.83-16.84,38.73-28.61,63.21-32.82-.93-6.49-1.42-13.11-1.42-19.85,0-76.63,62.12-138.75,138.75-138.75,53.82,0,100.47,30.63,123.5,75.41,16.46-16.09,38.99-26,63.84-26,50.48,0,91.41,40.92,91.41,91.4,0,5.49-.49,10.85-1.41,16.06h15.61c65.14,0,117.96,52.82,117.96,117.96Z"/>
  <g id="bolt" class="cls-2">
    <path class="cls-4" d="M227.08,635.13c-3.36,0-6.72-1.9-8.57-4.83-1.8-2.85-1.94-6.18-.41-9.38l45.92-95.83,34.7-72.42-99.55-.36c-5.01-.02-8.03-3.31-9.19-6.38s-1.06-7.54,2.69-10.85l217.87-193.12c1.9-1.68,4.13-2.57,6.45-2.57,3.35,0,6.72,1.89,8.57,4.82,1.8,2.85,1.95,6.17.43,9.37l-79.66,167.43,30.38.04,69.66.09c5.01,0,8.04,3.3,9.21,6.38,1.16,3.08,1.07,7.55-2.69,10.87l-219.35,194.17c-1.9,1.68-4.13,2.57-6.45,2.57h-.01Z"/>
    <path class="cls-3" d="M416.98,241.38h0c2.68,0,5.38,1.53,6.88,3.89.82,1.3,1.95,4,.32,7.44l-66.78,140.36-11.52,24.22-2.72,5.71h6.32l27.22.05,69.66.09c4,0,6.41,2.63,7.34,5.08.93,2.45.85,6.02-2.14,8.67l-219.35,194.17c-1.55,1.37-3.27,2.06-5.12,2.06-2.69,0-5.39-1.53-6.88-3.9-.82-1.3-1.95-4-.3-7.45l45.92-95.83,33.33-69.57,2.73-5.71-6.33-.02-96.39-.35c-3.99-.01-6.4-2.64-7.32-5.08-.92-2.45-.85-6.01,2.14-8.65l43.75-38.78,174.12-154.34c1.55-1.37,3.27-2.07,5.12-2.07M416.98,237.38c-2.63,0-5.35.93-7.78,3.07l-174.12,154.34-43.75,38.78c-8.15,7.22-3.07,20.69,7.82,20.73l96.39.35-33.33,69.57-45.92,95.83c-4.19,8.75,2.89,17.08,10.79,17.08,2.63,0,5.35-.92,7.77-3.07l219.35-194.17c8.17-7.23,3.07-20.73-7.84-20.75l-69.66-.09-27.22-.04,11.52-24.22,66.78-140.36c4.16-8.75-2.92-17.05-10.8-17.05h0Z"/>
  </g>
</svg>