<?xml version="1.0" encoding="UTF-8"?>
<svg id="Layer_1" data-name="Layer 1" xmlns="http://www.w3.org/2000/svg" viewBox="0 0 527 451.85">
  <defs>
    <style>
      .cls-1 {
        fill: aqua;
        stroke-miterlimit: 10;
        stroke-width: 2px;
      }

      .cls-1, .cls-2 {
        stroke: #000;
      }

      .cls-2 {
        fill: gray;
        stroke-miterlimit: 10;
        stroke-width: 4px;
      }
    </style>
  </defs>
  <path id="cloud" class="cls-2" d="M525,224.5c0,26.37-10.69,50.24-27.97,67.53-17.29,17.28-41.16,27.97-67.53,27.97H97.5c-52.74,0-95.5-42.76-95.5-95.5,0-3.99.24-7.92.73-11.77,2.38-19.47,10.64-37.12,22.94-51.15,1.37-1.58,2.81-3.12,4.3-4.61,7.33-7.32,15.82-13.46,25.2-18.09h.02c.56-.3,1.12-.57,1.69-.82,7.59-3.59,15.74-6.19,24.27-7.66-.76-5.25-1.15-10.61-1.15-16.07,0-3.07.12-6.11.37-9.11,3.34-41.74,29.51-77.04,66.01-93.42,7.54-3.39,15.51-5.96,23.82-7.62,7.15-1.43,14.55-2.18,22.13-2.18,9.84,0,19.38,1.26,28.47,3.64,31.18,8.14,57.08,29.34,71.51,57.41,6.04-5.91,13.1-10.79,20.88-14.35,9.38-4.3,19.81-6.7,30.81-6.7,36.78,0,67.3,26.84,73.03,62,.64,3.9.97,7.91.97,12,0,4.44-.39,8.78-1.14,13h12.64c52.74,0,95.5,42.76,95.5,95.5Z"/>
  <g id="medium-drops">
    <path class="cls-1" d="M268.63,391.07c-.45,0-.88.21-1.16.57-5,6.47-13.84,15.87-14.47,21.49-.95,8.57,6.99,15.62,15.62,15.62s16.57-7.05,15.62-15.62c-.62-5.62-9.47-15.02-14.47-21.49-.28-.36-.7-.57-1.16-.57h0Z"/>
    <path class="cls-1" d="M130.06,330.76c-.45,0-.88.21-1.16.57-5,6.47-13.84,15.87-14.47,21.49-.95,8.57,6.99,15.62,15.62,15.62s16.57-7.05,15.62-15.62c-.62-5.62-9.47-15.02-14.47-21.49-.28-.36-.7-.57-1.16-.57h0Z"/>
    <path class="cls-1" d="M320.06,330.76c-.45,0-.88.21-1.16.57-5,6.47-13.84,15.87-14.47,21.49-.95,8.57,6.99,15.62,15.62,15.62s16.57-7.05,15.62-15.62c-.62-5.62-9.47-15.02-14.47-21.49-.28-.36-.7-.57-1.16-.57h0Z"/>
    <path class="cls-1" d="M454.06,390.76c-.45,0-.88.21-1.16.57-5,6.47-13.84,15.87-14.47,21.49-.95,8.57,6.99,15.62,15.62,15.62s16.57-7.05,15.62-15.62c-.62-5.62-9.47-15.02-14.47-21.49-.28-.36-.7-.57-1.16-.57h0Z"/>
    <path class="cls-1" d="M89.06,390.76c-.45,0-.88.21-1.16.57-5,6.47-13.84,15.87-14.47,21.49-.95,8.57,6.99,15.62,15.62,15.62s16.57-7.05,15.62-15.62c-.62-5.62-9.47-15.02-14.47-21.49-.28-.36-.7-.57-1.16-.57h0Z"/>
  </g>
  <g id="biggest-drops">
    <path class="cls-1" d="M161.33,390.54c-.73,0-1.41.34-1.85.91-8,10.35-22.15,25.39-23.15,34.39-1.52,13.72,11.19,25,25,25s26.52-11.28,25-25c-1-9-15.15-24.04-23.15-34.39-.44-.58-1.12-.91-1.85-.91h0Z"/>
    <path class="cls-1" d="M228.06,330.45c-.73,0-1.41.34-1.85.91-8,10.35-22.15,25.39-23.15,34.39-1.52,13.72,11.19,25,25,25s26.52-11.28,25-25c-1-9-15.15-24.04-23.15-34.39-.44-.58-1.12-.91-1.85-.91h0Z"/>
    <path class="cls-1" d="M345.06,390.45c-.73,0-1.41.34-1.85.91-8,10.35-22.15,25.39-23.15,34.39-1.52,13.72,11.19,25,25,25s26.52-11.28,25-25c-1-9-15.15-24.04-23.15-34.39-.44-.58-1.12-.91-1.85-.91h0Z"/>
    <path class="cls-1" d="M408.06,330.45c-.73,0-1.41.34-1.85.91-8,10.35-22.15,25.39-23.15,34.39-1.52,13.72,11.19,25,25,25s26.52-11.28,25-25c-1-9-15.15-24.04-23.15-34.39-.44-.58-1.12-.91-1.85-.91h0Z"/>
  </g>
  <g id="small-drops">
    <path class="cls-1" d="M211.85,428.07c-.25,0-.47.11-.62.31-2.7,3.5-7.48,8.58-7.82,11.62-.52,4.64,3.78,8.44,8.44,8.44s8.96-3.81,8.44-8.44c-.34-3.04-5.12-8.12-7.82-11.62-.15-.19-.38-.31-.62-.31h0Z"/>
    <path class="cls-1" d="M175.06,339.42c-.25,0-.47.11-.62.31-2.7,3.5-7.48,8.58-7.82,11.62-.52,4.64,3.78,8.44,8.44,8.44s8.96-3.81,8.44-8.44c-.34-3.04-5.12-8.12-7.82-11.62-.15-.19-.38-.31-.62-.31h0Z"/>
    <path class="cls-1" d="M89.06,339.42c-.25,0-.47.11-.62.31-2.7,3.5-7.48,8.58-7.82,11.62-.52,4.64,3.78,8.44,8.44,8.44s8.96-3.81,8.44-8.44c-.34-3.04-5.12-8.12-7.82-11.62-.15-.19-.38-.31-.62-.31h0Z"/>
    <path class="cls-1" d="M404.06,410.42c-.25,0-.47.11-.62.31-2.7,3.5-7.48,8.58-7.82,11.62-.52,4.64,3.78,8.44,8.44,8.44s8.96-3.81,8.44-8.44c-.34-3.04-5.12-8.12-7.82-11.62-.15-.19-.38-.31-.62-.31h0Z"/>
    <path class="cls-1" d="M454.06,335.42c-.25,0-.47.11-.62.31-2.7,3.5-7.48,8.58-7.82,11.62-.52,4.64,3.78,8.44,8.44,8.44s8.96-3.81,8.44-8.44c-.34-3.04-5.12-8.12-7.82-11.62-.15-.19-.38-.31-.62-.31h0Z"/>
  </g>
</svg>