<?xml version="1.0" encoding="UTF-8"?>
<svg id="a" xmlns="http://www.w3.org/2000/svg" viewBox="0 0 502.03 552.28">
  <defs>
    <style>
      .cls-1 {
        fill: #74e6ff;
        stroke-width: 4px;
      }

      .cls-1, .cls-2 {
        stroke: #000;
        stroke-miterlimit: 10;
      }

      .cls-2 {
        fill: #bffcff;
      }
    </style>
  </defs>
  <g id="big-snowflake">
    <path class="cls-1" d="M251.02,548.28c-7.48,0-14.51-2.91-19.8-8.2-5.29-5.28-8.2-12.31-8.2-19.8v-53.4l-39.35,40c-3.41,3.47-7.96,5.38-12.83,5.38s-9.24-1.84-12.62-5.17c-7.08-6.95-7.17-18.37-.22-25.45l65.01-66.09v-90.91l-78.68,45.43-24.88,89.37c-2.16,7.77-9.29,13.19-17.34,13.19-1.62,0-3.25-.22-4.83-.66-9.56-2.67-15.18-12.62-12.52-22.18l15.03-54.02-46.22,26.69c-4.26,2.46-9.09,3.76-13.98,3.76-9.99,0-19.29-5.37-24.27-14.01-3.74-6.48-4.73-14.02-2.79-21.24,1.92-7.23,6.55-13.26,13.04-17.01l46.24-26.7-54.32-14.06c-9.61-2.49-15.4-12.33-12.91-21.94,2.06-7.94,9.22-13.49,17.42-13.49,1.51,0,3.03.19,4.52.58l89.75,23.25,78.73-45.45-78.68-45.42-89.84,23.13c-1.48.38-3,.58-4.51.58-8.2,0-15.36-5.55-17.41-13.51-1.2-4.66-.51-9.5,1.93-13.65,2.44-4.14,6.35-7.08,11.01-8.28l54.29-13.99-46.22-26.69c-6.48-3.74-11.11-9.78-13.05-17-1.94-7.23-.94-14.77,2.8-21.25s9.78-11.11,17-13.04c2.38-.64,4.83-.97,7.29-.97,4.88,0,9.7,1.3,13.95,3.76l46.24,26.69-14.97-54.07c-1.28-4.63-.69-9.49,1.69-13.68,2.37-4.18,6.23-7.19,10.86-8.47,1.58-.44,3.2-.66,4.82-.66,8.05,0,15.18,5.43,17.33,13.2l24.74,89.35,78.73,45.46v-90.85l-64.96-66.23c-6.95-7.08-6.84-18.51.24-25.46,3.39-3.32,7.86-5.15,12.6-5.15s9.44,1.92,12.86,5.4l39.26,40.02v-53.37c0-15.44,12.56-28,28-28,7.48,0,14.51,2.91,19.8,8.2,5.29,5.28,8.2,12.31,8.2,19.8v53.4l39.35-40c3.41-3.47,7.96-5.38,12.83-5.38s9.24,1.84,12.62,5.17c7.08,6.95,7.17,18.37.22,25.45l-65.01,66.09v90.91l78.68-45.43,24.88-89.37c2.16-7.77,9.29-13.19,17.34-13.19,1.62,0,3.25.22,4.83.66,9.56,2.67,15.18,12.62,12.52,22.18l-15.03,54.02,46.22-26.69c4.26-2.46,9.09-3.76,13.98-3.76,9.99,0,19.29,5.37,24.27,14.01,3.74,6.48,4.73,14.02,2.79,21.24-1.92,7.23-6.55,13.27-13.04,17.01l-46.24,26.7,54.32,14.06c4.65,1.21,8.56,4.15,11,8.3,2.44,4.15,3.12,8.99,1.91,13.64-2.06,7.94-9.22,13.49-17.42,13.49-1.51,0-3.03-.19-4.52-.58l-89.75-23.26-78.73,45.45,78.68,45.42,89.84-23.13c1.48-.38,3-.58,4.51-.58,8.2,0,15.36,5.55,17.42,13.51,1.2,4.66.51,9.5-1.93,13.65s-6.35,7.08-11.01,8.28l-54.29,13.99,46.22,26.69c6.48,3.74,11.11,9.78,13.05,17s.94,14.77-2.8,21.25-9.78,11.11-17,13.04c-2.38.64-4.83.97-7.29.97-4.88,0-9.7-1.3-13.96-3.76l-46.24-26.69,14.97,54.07c1.28,4.63.69,9.49-1.69,13.68-2.37,4.18-6.23,7.19-10.86,8.47-1.58.44-3.2.66-4.82.66-8.05,0-15.18-5.43-17.33-13.2l-24.74-89.35-78.73-45.46v90.85l64.96,66.23c6.95,7.08,6.84,18.51-.24,25.46-3.39,3.32-7.86,5.15-12.6,5.15s-9.44-1.92-12.86-5.4l-39.26-40.03v53.38c0,15.44-12.56,28-28,28h0Z"/>
    <path class="cls-1" d="M251.02,6c6.94,0,13.47,2.71,18.38,7.62,4.91,4.9,7.62,11.43,7.62,18.38v58.28l6.85-6.97,35.92-36.52c3.03-3.08,7.08-4.78,11.4-4.78s8.21,1.63,11.22,4.6c3.05,2.99,4.75,6.99,4.78,11.27.04,4.27-1.6,8.31-4.59,11.35l-64.44,65.51-1.15,1.17v95.2l6-3.46,74.97-43.29,1.42-.82.44-1.57,24.66-88.58c1.92-6.9,8.26-11.72,15.42-11.72,1.44,0,2.89.2,4.28.59,8.5,2.37,13.5,11.22,11.13,19.71l-13.72,49.3-2.62,9.43,8.48-4.9,41.98-24.24c3.95-2.28,8.44-3.49,12.97-3.49,9.27,0,17.91,4.98,22.54,13.01,3.47,6.01,4.39,13.02,2.59,19.73-1.78,6.7-6.08,12.31-12.1,15.78l-42.01,24.26-8.46,4.89,9.46,2.45,49.59,12.84c8.54,2.21,13.68,10.96,11.47,19.5-1.83,7.06-8.2,11.99-15.48,11.99-1.35,0-2.7-.17-4.01-.51l-88.96-23.05-1.59-.41-1.42.82-75.02,43.31-6,3.46,6,3.46,74.97,43.28,1.41.82,1.58-.41,89.05-22.93c1.32-.34,2.67-.51,4.01-.51,7.29,0,13.65,4.94,15.48,12,1.06,4.14.45,8.45-1.72,12.13s-5.65,6.29-9.79,7.36l-49.55,12.77-9.48,2.44,8.48,4.89,41.98,24.24c6.02,3.47,10.32,9.08,12.12,15.78,1.8,6.71.87,13.72-2.6,19.73-3.47,6.02-9.08,10.32-15.8,12.11-2.2.6-4.48.9-6.76.9-4.52,0-9-1.21-12.96-3.49l-42.01-24.25-8.46-4.88,2.61,9.42,13.67,49.36c1.14,4.12.61,8.44-1.5,12.16s-5.53,6.39-9.65,7.53c-1.4.39-2.85.59-4.29.59-7.15,0-13.49-4.82-15.4-11.73l-24.52-88.56-.44-1.58-1.42-.82-75.02-43.32-6-3.46v95.13l1.14,1.17,64.39,65.65c6.18,6.3,6.08,16.45-.21,22.63-3.01,2.95-6.99,4.58-11.21,4.58s-8.39-1.7-11.43-4.8l-35.83-36.53-6.86-6.99v58.27c0,14.34-11.66,26-26,26-6.94,0-13.47-2.71-18.38-7.62-4.91-4.9-7.62-11.43-7.62-18.38v-58.28l-6.85,6.97-35.92,36.52c-3.03,3.08-7.08,4.78-11.4,4.78s-8.21-1.63-11.22-4.6c-3.05-2.99-4.75-6.99-4.78-11.27-.04-4.27,1.6-8.31,4.59-11.35l64.44-65.51,1.15-1.17v-95.2l-6,3.46-74.97,43.29-1.41.82-.44,1.57-24.66,88.58c-1.92,6.9-8.26,11.72-15.42,11.72-1.44,0-2.89-.2-4.29-.59-8.5-2.37-13.5-11.22-11.13-19.71l13.72-49.3,2.62-9.43-8.48,4.9-41.98,24.24c-3.95,2.28-8.44,3.49-12.97,3.49-9.27,0-17.91-4.98-22.54-13.01-3.47-6.01-4.39-13.02-2.59-19.73,1.78-6.7,6.08-12.31,12.1-15.78l42.01-24.26,8.46-4.89-9.46-2.45-49.59-12.84c-8.54-2.21-13.68-10.96-11.47-19.5,1.83-7.06,8.2-11.99,15.48-11.99,1.35,0,2.7.17,4.01.51l88.96,23.05,1.59.41,1.42-.82,75.02-43.31,6-3.46-6-3.46-74.97-43.28-1.42-.82-1.58.41-89.05,22.93c-1.32.34-2.67.51-4.01.51-7.29,0-13.65-4.94-15.48-12-1.06-4.14-.45-8.45,1.72-12.13,2.17-3.68,5.65-6.29,9.79-7.36l49.55-12.77,9.48-2.44-8.48-4.89-41.98-24.24c-6.01-3.47-10.32-9.08-12.12-15.78-1.8-6.71-.87-13.72,2.6-19.73,3.47-6.02,9.08-10.32,15.8-12.11,2.2-.6,4.48-.9,6.76-.9,4.52,0,9,1.21,12.96,3.49l42.01,24.25,8.46,4.88-2.61-9.42-13.67-49.36c-1.14-4.12-.61-8.44,1.5-12.16s5.53-6.39,9.65-7.53c1.4-.39,2.85-.59,4.29-.59,7.15,0,13.49,4.82,15.4,11.73l24.52,88.56.44,1.58,1.42.82,75.02,43.32,6,3.46v-95.13l-1.14-1.17-64.39-65.65c-6.18-6.3-6.08-16.45.21-22.63,3.01-2.95,6.99-4.58,11.21-4.58s8.39,1.7,11.43,4.8l35.83,36.53,6.86,6.99v-58.27c0-14.34,11.66-26,26-26M251.02,2c-16.57,0-30,13.43-30,30v48.48l-35.83-36.53c-3.92-4-9.1-6-14.29-6s-10.11,1.9-14,5.72c-7.88,7.74-8.01,20.4-.27,28.29l64.39,65.65v86.57l-75.02-43.32-24.52-88.56c-2.46-8.85-10.49-14.66-19.26-14.66-1.77,0-3.57.24-5.35.73-10.64,2.94-16.89,13.96-13.94,24.61l13.67,49.36-42.01-24.25c-4.72-2.73-9.88-4.03-14.96-4.03-2.65,0-5.27.35-7.8,1.04-7.42,1.98-14.08,6.8-18.22,13.97-8.29,14.35-3.37,32.7,10.98,40.98l41.98,24.24-49.55,12.77c-10.7,2.75-17.13,13.66-14.38,24.36,2.33,9.02,10.45,15.01,19.35,15.01,1.65,0,3.33-.21,5.01-.64l89.05-22.93,74.97,43.28-75.02,43.31-88.96-23.05c-1.68-.43-3.36-.64-5.02-.64-8.9,0-17.02,5.98-19.35,14.99-2.77,10.69,3.65,21.61,14.34,24.38l49.59,12.84-42.01,24.26c-7.18,4.14-12,10.8-13.97,18.22-1.99,7.41-1.15,15.59,2.99,22.76,5.55,9.62,15.64,15.01,26.01,15.01,5.09,0,10.25-1.3,14.97-4.03l41.98-24.24-13.72,49.3c-2.96,10.64,3.27,21.67,13.91,24.64,1.79.5,3.59.73,5.36.73,8.76,0,16.81-5.79,19.27-14.65l24.66-88.58,74.97-43.29v86.63l-64.44,65.51c-7.74,7.88-7.64,20.54.24,28.28,3.89,3.83,8.96,5.75,14.03,5.75s10.34-2,14.25-5.98l35.92-36.52v48.51c0,8.29,3.36,15.79,8.79,21.21,5.43,5.43,12.93,8.79,21.21,8.79,16.57,0,30-13.43,30-30v-48.48l35.83,36.53c3.92,4,9.1,6,14.29,6s10.11-1.9,14-5.72c7.88-7.74,8.01-20.4.27-28.29l-64.39-65.65v-86.57l75.02,43.32,24.52,88.56c2.46,8.85,10.49,14.66,19.26,14.66,1.77,0,3.57-.24,5.35-.73,10.64-2.94,16.89-13.96,13.94-24.61l-13.67-49.36,42.01,24.25c4.72,2.73,9.88,4.03,14.96,4.03,2.65,0,5.27-.35,7.8-1.04,7.42-1.98,14.08-6.8,18.22-13.97,8.29-14.35,3.37-32.7-10.98-40.98l-41.98-24.24,49.55-12.77c10.7-2.75,17.13-13.66,14.38-24.36-2.33-9.02-10.45-15.01-19.35-15.01-1.65,0-3.33.21-5.01.64l-89.05,22.93-74.97-43.28,75.02-43.31,88.96,23.05c1.68.43,3.36.64,5.02.64,8.9,0,17.02-5.98,19.35-14.99,2.77-10.69-3.65-21.61-14.34-24.38l-49.59-12.84,42.01-24.26c7.18-4.14,12-10.8,13.97-18.22,1.99-7.41,1.15-15.59-2.99-22.76-5.55-9.62-15.64-15.01-26.01-15.01-5.09,0-10.25,1.3-14.97,4.03l-41.98,24.24,13.72-49.3c2.96-10.64-3.27-21.67-13.91-24.64-1.79-.5-3.59-.73-5.36-.73-8.76,0-16.81,5.79-19.27,14.65l-24.66,88.58-74.97,43.29v-86.63l64.44-65.51c7.74-7.88,7.64-20.54-.24-28.28-3.89-3.83-8.96-5.75-14.03-5.75s-10.34,2-14.25,5.98l-35.92,36.52v-48.51c0-8.29-3.36-15.79-8.79-21.21-5.43-5.43-12.93-8.79-21.21-8.79h0Z"/>
  </g>
  <g id="small-snowflakes">
    <g>
      <path class="cls-2" d="M318.15,188.54c-.16,0-.32-.02-.47-.07-.83-.26-1.29-1.14-1.03-1.97l2.9-9.29-4.59-8.94-5.44,8.44,1.96,9.53c.17.85-.37,1.68-1.22,1.86-.1.02-.21.03-.32.03-.74,0-1.39-.53-1.54-1.26l-1.32-6.39-3.39,5.25c-.48.75-1.3,1.2-2.2,1.2-.5,0-.99-.14-1.41-.42-.59-.38-.99-.96-1.14-1.64-.15-.68-.02-1.38.36-1.96l3.39-5.25-6.37,1.43c-.11.03-.23.04-.35.04-.73,0-1.37-.52-1.53-1.23-.19-.85.34-1.69,1.19-1.88l9.49-2.13,5.44-8.45-10.03-.49-7.27,6.47c-.29.26-.66.4-1.04.4-.45,0-.88-.19-1.18-.53-.58-.65-.52-1.65.13-2.22l4.88-4.34-6.24-.31c-.7-.03-1.34-.34-1.81-.85-.47-.52-.71-1.18-.67-1.88.03-.7.34-1.34.85-1.8.48-.44,1.1-.68,1.75-.68l6.37.31-4.43-4.8c-.59-.64-.55-1.63.09-2.22.29-.27.67-.42,1.07-.42.44,0,.86.18,1.16.51l6.59,7.15,10.04.49-4.59-8.93-9.24-3.07c-.82-.27-1.27-1.16-1-1.99.21-.64.81-1.08,1.49-1.08.17,0,.33.03.5.08l6.19,2.06-2.86-5.56c-.32-.62-.38-1.33-.16-1.99s.67-1.2,1.29-1.52c.37-.19.77-.29,1.19-.29.27,0,.54.04.8.13.66.21,1.21.67,1.52,1.29l2.85,5.56,1.95-6.23c.21-.66.81-1.1,1.5-1.1.16,0,.32.02.47.07.83.26,1.29,1.14,1.03,1.97l-2.9,9.29,4.59,8.94,5.44-8.44-1.96-9.53c-.17-.85.38-1.68,1.22-1.86.1-.02.21-.03.32-.03.74,0,1.39.53,1.54,1.26l1.32,6.39,3.38-5.25c.48-.75,1.3-1.2,2.2-1.2.5,0,.99.14,1.41.42.58.38.99.96,1.14,1.64.15.68.02,1.38-.36,1.96l-3.38,5.25,6.37-1.43c.12-.03.23-.04.35-.04.73,0,1.37.52,1.53,1.23.09.41.02.83-.2,1.19s-.57.6-.98.69l-9.49,2.13-5.44,8.45,10.03.49,7.27-6.47c.29-.26.66-.4,1.05-.4.45,0,.88.19,1.18.53.58.65.52,1.65-.13,2.22l-4.88,4.34,6.24.31c.7.03,1.34.34,1.81.85.47.52.71,1.18.67,1.88-.03.7-.34,1.34-.85,1.8-.48.44-1.1.68-1.75.68l-6.37-.31,4.43,4.8c.59.64.55,1.63-.09,2.22-.29.27-.67.42-1.07.42-.44,0-.86-.18-1.16-.51l-6.59-7.15-10.04-.49,4.59,8.93,9.24,3.07c.82.27,1.27,1.16,1,1.99-.21.64-.81,1.08-1.49,1.08-.17,0-.33-.03-.5-.08l-6.19-2.06,2.85,5.56c.32.62.38,1.33.16,1.99-.21.66-.67,1.2-1.29,1.52-.37.19-.77.29-1.19.29-.27,0-.54-.04-.8-.13-.66-.21-1.2-.67-1.52-1.29l-2.86-5.56-1.95,6.23c-.21.66-.81,1.1-1.5,1.1h0Z"/>
      <path class="cls-2" d="M312.27,138.09c.11,0,.22.02.32.05.56.18.88.78.7,1.34l-2.84,9.09-.12.39.19.36,4.1,7.99.79,1.54.94-1.46,4.86-7.54.22-.34-.08-.4-1.92-9.33c-.12-.58.26-1.15.83-1.27.07,0,.15-.02.22-.02.51,0,.95.36,1.05.86l1.07,5.19.49,2.4,1.33-2.06,2.72-4.22c.39-.61,1.05-.97,1.78-.97.4,0,.8.12,1.14.34.47.3.8.78.92,1.33.12.55.02,1.11-.29,1.59l-2.72,4.23-1.32,2.05,2.38-.54,5.18-1.16c.08-.02.16-.03.24-.03.5,0,.93.35,1.04.84.06.28.01.57-.14.81-.15.24-.39.41-.67.47l-9.29,2.09-.4.09-.22.34-4.86,7.55-.94,1.46,1.73.08,8.96.44.41.02.31-.27,7.12-6.33c.2-.18.45-.27.71-.27.31,0,.6.13.8.36.39.44.35,1.12-.09,1.52l-3.96,3.52-1.83,1.63,2.44.12,5.02.25c.56.03,1.08.27,1.46.69s.57.96.54,1.52-.27,1.08-.69,1.46c-.39.35-.89.55-1.41.55h-.11l-5.02-.25-2.44-.12,1.66,1.8,3.6,3.9c.19.21.29.48.28.77-.01.29-.13.55-.34.75-.2.18-.46.28-.73.28-.3,0-.58-.12-.79-.34l-6.45-7-.28-.3-.41-.02-8.97-.44-1.73-.08.79,1.54,4.1,7.98.19.36.39.13,9.04,3c.56.19.87.79.68,1.35-.15.44-.56.74-1.02.74-.11,0-.23-.02-.34-.06l-5.03-1.67-2.32-.77,1.12,2.18,2.3,4.47c.26.5.3,1.07.13,1.61-.17.54-.54.97-1.04,1.23-.3.15-.62.23-.96.23-.22,0-.44-.03-.65-.1-.53-.17-.97-.54-1.23-1.04l-2.3-4.47-1.12-2.17-.73,2.33-1.58,5.07c-.14.45-.55.75-1.02.75-.11,0-.22-.02-.32-.05-.56-.18-.88-.78-.7-1.34l2.84-9.09.12-.39-.19-.36-4.1-7.99-.79-1.54-.94,1.46-4.86,7.54-.22.34.08.4,1.92,9.33c.12.58-.26,1.15-.83,1.27-.07,0-.15.02-.22.02-.51,0-.95-.36-1.05-.86l-1.07-5.19-.49-2.4-1.33,2.06-2.72,4.22c-.39.61-1.05.97-1.78.97-.4,0-.8-.12-1.14-.34-.47-.3-.8-.78-.92-1.33-.12-.55-.02-1.11.29-1.59l2.72-4.23,1.32-2.05-2.38.54-5.18,1.16c-.08.02-.16.03-.24.03-.5,0-.93-.35-1.04-.84-.06-.28-.01-.57.14-.81.15-.24.39-.41.67-.47l9.29-2.09.4-.09.22-.34,4.86-7.55.94-1.46-1.73-.08-8.96-.44-.41-.02-.31.27-7.12,6.33c-.2.18-.45.27-.71.27-.31,0-.6-.13-.8-.36-.39-.44-.35-1.12.09-1.52l3.96-3.52,1.83-1.63-2.44-.12-5.02-.25c-.56-.03-1.08-.27-1.46-.69s-.57-.96-.54-1.52.27-1.08.69-1.46c.39-.35.89-.55,1.41-.55h.11l5.02.25,2.44.12-1.66-1.8-3.6-3.9c-.19-.21-.29-.48-.28-.77.01-.29.13-.55.34-.75.2-.18.46-.28.73-.28.3,0,.58.12.79.34l6.45,7,.28.3.41.02,8.97.44,1.73.08-.79-1.54-4.1-7.98-.19-.36-.39-.13-9.04-3c-.56-.19-.87-.79-.68-1.35.15-.44.56-.74,1.02-.74.11,0,.23.02.34.06l5.03,1.67,2.32.77-1.12-2.18-2.3-4.47c-.26-.5-.3-1.07-.13-1.61.17-.54.54-.97,1.04-1.23.3-.15.62-.23.96-.23.22,0,.44.03.65.1.53.17.97.54,1.23,1.04l2.3,4.47,1.12,2.17.73-2.33,1.58-5.07c.14-.45.55-.75,1.02-.75M312.27,137.09c-.88,0-1.7.57-1.98,1.46l-1.58,5.07-2.3-4.47c-.39-.76-1.06-1.3-1.81-1.54-.31-.1-.63-.15-.95-.15-.48,0-.96.11-1.42.34-1.53.78-2.13,2.66-1.34,4.19l2.3,4.47-5.03-1.67c-.22-.07-.44-.11-.65-.11-.87,0-1.68.55-1.97,1.42-.36,1.09.23,2.26,1.31,2.62l9.04,3,4.1,7.98-8.97-.44-6.45-7c-.41-.44-.97-.67-1.52-.67-.5,0-1.01.18-1.4.55-.84.78-.9,2.09-.12,2.93l3.6,3.9-5.02-.25h-.16c-.8,0-1.53.3-2.08.81-.59.53-.98,1.29-1.02,2.15-.08,1.71,1.24,3.17,2.95,3.26l5.02.25-3.96,3.52c-.86.76-.93,2.07-.17,2.93.41.46.98.69,1.55.69.49,0,.98-.17,1.38-.52l7.12-6.33,8.96.44-4.86,7.55-9.29,2.09c-1.12.25-1.82,1.36-1.57,2.48.22.96,1.07,1.62,2.02,1.62.15,0,.3-.02.46-.05l5.18-1.16-2.72,4.23c-.47.72-.59,1.56-.43,2.34.17.78.63,1.49,1.35,1.96.52.34,1.1.5,1.68.5,1.02,0,2.02-.5,2.62-1.42l2.72-4.22,1.07,5.19c.2.98,1.07,1.66,2.03,1.66.14,0,.28,0,.42-.04,1.12-.23,1.84-1.33,1.61-2.45l-1.92-9.33,4.86-7.54,4.1,7.99-2.84,9.09c-.34,1.09.27,2.25,1.36,2.6.21.06.41.09.62.09.88,0,1.7-.57,1.98-1.46l1.58-5.07,2.3,4.47c.39.76,1.06,1.3,1.81,1.54.31.1.63.15.95.15.48,0,.96-.11,1.42-.34,1.53-.78,2.13-2.66,1.34-4.19l-2.3-4.47,5.03,1.67c.22.07.44.11.65.11.87,0,1.68-.55,1.97-1.42.36-1.09-.23-2.26-1.31-2.62l-9.04-3-4.1-7.98,8.97.44,6.45,7c.41.44.97.67,1.52.67.5,0,1.01-.18,1.4-.55.84-.78.9-2.09.12-2.93l-3.6-3.9,5.02.25h.16c.8,0,1.53-.3,2.08-.81.59-.53.98-1.29,1.02-2.15.08-1.71-1.24-3.17-2.95-3.26l-5.02-.25,3.96-3.52c.86-.76.93-2.07.17-2.93-.41-.46-.98-.69-1.55-.69-.49,0-.98.17-1.38.52l-7.12,6.33-8.96-.44,4.86-7.55,9.29-2.09c1.12-.25,1.82-1.36,1.57-2.48-.22-.96-1.07-1.62-2.02-1.62-.15,0-.3.02-.46.05l-5.18,1.16,2.72-4.23c.47-.72.59-1.56.43-2.34-.17-.78-.63-1.49-1.35-1.96-.52-.34-1.1-.5-1.68-.5-1.02,0-2.02.5-2.62,1.42l-2.72,4.22-1.07-5.19c-.2-.98-1.07-1.66-2.03-1.66-.14,0-.28,0-.42.04-1.12.23-1.84,1.33-1.61,2.45l1.92,9.33-4.86,7.54-4.1-7.99,2.84-9.09c.34-1.09-.27-2.25-1.36-2.6-.21-.06-.41-.09-.62-.09h0Z"/>
    </g>
    <g>
      <path class="cls-2" d="M319.36,418.81c-.16,0-.32-.02-.47-.07-.4-.12-.73-.4-.92-.77-.2-.37-.23-.8-.11-1.2l2.9-9.29-4.59-8.94-5.44,8.44,1.96,9.53c.17.85-.37,1.68-1.22,1.86-.1.02-.21.03-.32.03-.74,0-1.39-.53-1.54-1.26l-1.32-6.39-3.39,5.25c-.48.75-1.3,1.2-2.2,1.2-.5,0-.99-.14-1.41-.42-.59-.38-.99-.96-1.14-1.64s-.02-1.38.36-1.97l3.39-5.25-6.37,1.43c-.11.03-.23.04-.35.04-.73,0-1.37-.52-1.53-1.23-.19-.85.34-1.69,1.19-1.88l9.49-2.13,5.44-8.45-10.03-.49-7.27,6.47c-.29.26-.66.4-1.04.4-.45,0-.88-.19-1.18-.53-.58-.65-.52-1.65.13-2.22l4.88-4.34-6.24-.31c-.7-.03-1.34-.34-1.81-.85-.47-.52-.71-1.18-.67-1.88s.34-1.34.85-1.8c.48-.44,1.1-.68,1.75-.68h.13l6.24.31-4.43-4.8c-.59-.64-.55-1.63.09-2.22.29-.27.67-.42,1.07-.42.44,0,.85.18,1.16.51l6.59,7.15,10.04.49-4.59-8.93-9.24-3.07c-.82-.27-1.27-1.17-1-1.99.21-.64.81-1.08,1.49-1.08.17,0,.33.03.5.08l6.2,2.06-2.86-5.56c-.32-.62-.38-1.33-.16-1.99.21-.66.67-1.21,1.29-1.52.37-.19.77-.29,1.19-.29.27,0,.54.04.8.13.67.21,1.21.67,1.52,1.29l2.85,5.56,1.95-6.23c.21-.66.81-1.11,1.5-1.11.16,0,.32.02.47.07.83.26,1.29,1.14,1.03,1.97l-2.9,9.29,4.59,8.94,5.44-8.44-1.96-9.53c-.17-.85.38-1.68,1.22-1.86.1-.02.21-.03.32-.03.74,0,1.39.53,1.54,1.26l1.32,6.39,3.38-5.25c.48-.75,1.3-1.2,2.2-1.2.5,0,.99.14,1.41.42.58.38.99.96,1.14,1.64.15.68.02,1.38-.36,1.96l-3.39,5.25,6.37-1.43c.12-.03.23-.04.35-.04.73,0,1.37.52,1.53,1.23.09.41.02.83-.2,1.19-.22.35-.57.6-.98.69l-9.49,2.13-5.44,8.45,10.03.49,7.27-6.47c.29-.26.66-.4,1.05-.4.45,0,.88.19,1.18.53.58.65.52,1.64-.13,2.22l-4.88,4.34,6.24.31c.7.03,1.34.34,1.81.85.47.52.71,1.18.67,1.88-.03.7-.34,1.34-.85,1.8-.48.44-1.1.68-1.75.68h-.13l-6.24-.31,4.43,4.8c.28.31.43.71.41,1.13s-.2.81-.5,1.09c-.29.27-.67.42-1.07.42-.44,0-.86-.18-1.16-.51l-6.59-7.15-10.04-.49,4.59,8.93,9.24,3.07c.82.27,1.27,1.16,1,1.99-.21.64-.81,1.08-1.49,1.08-.17,0-.33-.03-.5-.08l-6.2-2.05,2.85,5.56c.32.62.38,1.33.16,1.99-.21.66-.67,1.2-1.29,1.52-.37.19-.77.29-1.19.29-.27,0-.54-.04-.8-.13-.66-.21-1.2-.67-1.52-1.29l-2.86-5.56-1.95,6.23c-.21.66-.81,1.11-1.5,1.11h.01Z"/>
      <path class="cls-2" d="M313.48,368.36c.11,0,.22.02.32.05.56.18.88.78.7,1.34l-2.84,9.09-.12.39.19.36,4.1,7.99.79,1.54.94-1.46,4.86-7.54.22-.34-.08-.4-1.92-9.33c-.12-.58.26-1.15.83-1.27.07-.01.15-.02.22-.02.51,0,.95.36,1.05.86l1.07,5.19.49,2.4,1.33-2.06,2.72-4.22c.39-.61,1.05-.97,1.78-.97.4,0,.8.12,1.14.34.47.31.8.78.92,1.33.12.55.02,1.11-.29,1.59l-2.72,4.23-1.32,2.05,2.38-.54,5.18-1.16c.08-.02.16-.03.24-.03.5,0,.93.35,1.04.84.13.58-.23,1.15-.81,1.28l-9.29,2.09-.4.09-.22.34-4.86,7.55-.94,1.46,1.73.08,8.96.44.41.02.31-.27,7.12-6.33c.2-.17.45-.27.71-.27.31,0,.6.13.8.36.39.44.35,1.12-.09,1.52l-3.96,3.52-1.83,1.63,2.44.12,5.02.25c.56.03,1.08.27,1.46.69s.57.96.54,1.52-.27,1.08-.69,1.46c-.39.35-.89.55-1.41.55h-.11l-5.02-.25-2.44-.12,1.66,1.8,3.6,3.9c.19.21.29.48.28.77-.01.29-.13.55-.34.75-.2.18-.46.28-.73.28-.3,0-.58-.12-.79-.34l-6.45-7-.28-.3-.41-.02-8.97-.44-1.73-.08.79,1.54,4.1,7.98.19.36.39.13,9.04,3c.56.19.87.79.68,1.35-.15.44-.56.74-1.02.74-.11,0-.23-.02-.34-.06l-5.03-1.67-2.32-.77,1.12,2.18,2.3,4.47c.26.5.3,1.07.13,1.61-.17.54-.54.97-1.04,1.23-.3.15-.62.23-.96.23-.22,0-.44-.03-.65-.1-.53-.17-.97-.54-1.23-1.04l-2.3-4.47-1.12-2.17-.73,2.33-1.58,5.07c-.14.45-.55.75-1.02.75-.11,0-.22-.02-.32-.05-.56-.18-.88-.78-.7-1.34l2.84-9.09.12-.39-.19-.36-4.1-7.99-.79-1.54-.94,1.46-4.86,7.54-.22.34.08.4,1.92,9.33c.12.58-.26,1.15-.83,1.27-.07.01-.15.02-.22.02-.51,0-.95-.36-1.05-.86l-1.07-5.19-.49-2.4-1.33,2.06-2.72,4.22c-.39.61-1.05.97-1.78.97-.4,0-.8-.12-1.14-.34-.47-.31-.8-.78-.92-1.33-.12-.55-.02-1.11.29-1.59l2.72-4.23,1.32-2.05-2.38.54-5.18,1.16c-.08.02-.16.03-.24.03-.5,0-.93-.35-1.04-.84-.13-.58.23-1.15.81-1.28l9.29-2.09.4-.09.22-.34,4.86-7.55.94-1.46-1.73-.08-8.96-.44-.41-.02-.31.27-7.12,6.33c-.2.17-.45.27-.71.27-.31,0-.6-.13-.8-.36-.39-.44-.35-1.12.09-1.52l3.96-3.52,1.83-1.63-2.44-.12-5.02-.25c-.56-.03-1.08-.27-1.46-.69s-.57-.96-.54-1.52.27-1.08.69-1.46c.39-.35.89-.55,1.41-.55h.11l5.02.25,2.44.12-1.66-1.8-3.6-3.9c-.4-.43-.37-1.11.06-1.52.2-.18.46-.28.73-.28.3,0,.58.12.79.34l6.45,7,.28.3.41.02,8.97.44,1.73.08-.79-1.54-4.1-7.98-.19-.36-.39-.13-9.04-3c-.56-.19-.87-.79-.68-1.35.15-.44.56-.74,1.02-.74.11,0,.23.02.34.06l5.03,1.67,2.32.77-1.12-2.18-2.3-4.47c-.26-.5-.3-1.07-.13-1.61.17-.54.54-.97,1.04-1.23.3-.15.62-.23.96-.23.22,0,.44.03.65.1.53.17.97.54,1.23,1.04l2.3,4.47,1.12,2.17.73-2.33,1.58-5.07c.14-.45.55-.75,1.02-.75M313.48,367.36c-.88,0-1.7.57-1.98,1.46l-1.58,5.07-2.3-4.47c-.39-.76-1.06-1.3-1.81-1.54-.31-.1-.63-.15-.95-.15-.48,0-.96.11-1.42.34-1.53.78-2.13,2.66-1.34,4.19l2.3,4.47-5.03-1.67c-.22-.07-.44-.11-.65-.11-.87,0-1.68.55-1.97,1.42-.36,1.09.23,2.26,1.31,2.62l9.04,3,4.1,7.98-8.97-.44-6.45-7c-.41-.44-.97-.67-1.52-.67-.5,0-1.01.18-1.4.55-.84.78-.9,2.09-.12,2.93l3.6,3.9-5.02-.25h-.16c-.8,0-1.53.3-2.08.81-.59.53-.98,1.29-1.02,2.15-.08,1.71,1.24,3.17,2.95,3.26l5.02.25-3.96,3.52c-.86.76-.93,2.07-.17,2.93.41.46.98.69,1.55.69.49,0,.98-.17,1.38-.52l7.12-6.33,8.96.44-4.86,7.55-9.29,2.09c-1.12.25-1.82,1.36-1.57,2.48.22.96,1.07,1.62,2.02,1.62.15,0,.3-.02.46-.05l5.18-1.16-2.72,4.23c-.47.72-.59,1.56-.43,2.34.17.78.63,1.49,1.35,1.96.52.34,1.1.5,1.68.5,1.02,0,2.02-.5,2.62-1.42l2.72-4.22,1.07,5.19c.2.98,1.07,1.66,2.03,1.66.14,0,.28-.01.42-.04,1.12-.23,1.84-1.33,1.61-2.45l-1.92-9.33,4.86-7.54,4.1,7.99-2.84,9.09c-.34,1.09.27,2.25,1.36,2.6.21.06.41.09.62.09.88,0,1.7-.57,1.98-1.46l1.58-5.07,2.3,4.47c.39.76,1.06,1.3,1.81,1.54.31.1.63.15.95.15.48,0,.96-.11,1.42-.34,1.53-.78,2.13-2.66,1.34-4.19l-2.3-4.47,5.03,1.67c.22.07.44.11.65.11.87,0,1.68-.55,1.97-1.42.36-1.09-.23-2.26-1.31-2.62l-9.04-3-4.1-7.98,8.97.44,6.45,7c.41.44.97.67,1.52.67.5,0,1.01-.18,1.4-.55.84-.78.9-2.09.12-2.93l-3.6-3.9,5.02.25h.16c.8,0,1.53-.3,2.08-.81.59-.53.98-1.29,1.02-2.15.08-1.71-1.24-3.17-2.95-3.26l-5.02-.25,3.96-3.52c.86-.76.93-2.07.17-2.93-.41-.46-.98-.69-1.55-.69-.49,0-.98.17-1.38.52l-7.12,6.33-8.96-.44,4.86-7.55,9.29-2.09c1.12-.25,1.82-1.36,1.57-2.48-.22-.96-1.07-1.62-2.02-1.62-.15,0-.3.02-.46.05l-5.18,1.16,2.72-4.23c.47-.72.59-1.56.43-2.34-.17-.78-.63-1.49-1.35-1.96-.52-.34-1.1-.5-1.68-.5-1.02,0-2.02.5-2.62,1.42l-2.72,4.22-1.07-5.19c-.2-.98-1.07-1.66-2.03-1.66-.14,0-.28.01-.42.04-1.12.23-1.84,1.33-1.61,2.45l1.92,9.33-4.86,7.54-4.1-7.99,2.84-9.09c.34-1.09-.27-2.25-1.36-2.6-.21-.06-.41-.09-.62-.09h0Z"/>
    </g>
    <g>
      <path class="cls-2" d="M190.36,418.81c-.16,0-.32-.02-.47-.07-.4-.12-.73-.4-.92-.77-.2-.37-.23-.8-.11-1.2l2.9-9.29-4.59-8.94-5.44,8.44,1.96,9.53c.18.85-.37,1.68-1.22,1.86-.1.02-.21.03-.32.03-.74,0-1.39-.53-1.54-1.26l-1.32-6.39-3.39,5.25c-.48.75-1.3,1.2-2.2,1.2-.5,0-.99-.14-1.41-.42-.58-.38-.99-.96-1.14-1.64-.15-.68-.02-1.38.36-1.97l3.39-5.25-6.37,1.43c-.11.03-.23.04-.35.04-.73,0-1.37-.52-1.53-1.23-.19-.85.34-1.69,1.19-1.88l9.49-2.13,5.44-8.45-10.03-.49-7.27,6.47c-.29.26-.66.4-1.04.4-.45,0-.88-.19-1.18-.53-.58-.65-.52-1.65.13-2.22l4.88-4.34-6.24-.31c-.7-.03-1.34-.34-1.81-.85-.47-.52-.71-1.18-.67-1.88s.34-1.34.85-1.8c.48-.44,1.1-.68,1.75-.68h.13l6.24.31-4.43-4.8c-.59-.64-.55-1.63.09-2.22.29-.27.67-.42,1.07-.42.44,0,.85.18,1.16.51l6.59,7.15,10.04.49-4.59-8.93-9.24-3.07c-.82-.27-1.27-1.17-1-1.99.21-.64.81-1.08,1.49-1.08.17,0,.33.03.5.08l6.19,2.06-2.85-5.56c-.32-.62-.38-1.33-.16-1.99.21-.66.67-1.21,1.29-1.52.37-.19.77-.29,1.19-.29.27,0,.54.04.8.13.66.21,1.2.67,1.52,1.29l2.86,5.56,1.94-6.23c.21-.66.81-1.1,1.5-1.1.16,0,.32.02.47.07.83.26,1.29,1.14,1.03,1.97l-2.9,9.29,4.59,8.94,5.44-8.44-1.96-9.53c-.18-.85.37-1.68,1.22-1.86.1-.02.21-.03.32-.03.74,0,1.39.53,1.54,1.26l1.32,6.39,3.39-5.25c.48-.75,1.3-1.2,2.2-1.2.5,0,.99.14,1.41.42.59.38.99.96,1.14,1.64.15.68.02,1.38-.36,1.96l-3.39,5.25,6.37-1.43c.11-.03.23-.04.35-.04.73,0,1.37.52,1.53,1.23.09.41.02.83-.21,1.19-.22.35-.57.6-.98.69l-9.49,2.13-5.44,8.45,10.03.49,7.27-6.47c.29-.26.66-.4,1.05-.4.45,0,.88.19,1.18.53.58.65.52,1.65-.13,2.22l-4.88,4.34,6.24.31c.7.03,1.34.34,1.81.85.47.52.71,1.18.67,1.88-.03.7-.34,1.34-.85,1.8-.48.44-1.1.68-1.75.68h-.13l-6.24-.31,4.43,4.8c.28.31.43.71.41,1.13s-.2.81-.51,1.09c-.29.27-.67.42-1.07.42-.44,0-.85-.18-1.16-.51l-6.59-7.15-10.04-.49,4.59,8.93,9.24,3.07c.82.27,1.27,1.16,1,1.99-.21.64-.81,1.08-1.49,1.08-.17,0-.33-.03-.5-.08l-6.19-2.06,2.85,5.56c.32.62.38,1.33.16,1.99-.21.66-.67,1.21-1.29,1.52-.37.19-.77.29-1.19.29-.27,0-.54-.04-.8-.13-.66-.21-1.2-.67-1.52-1.29l-2.86-5.56-1.94,6.23c-.21.66-.81,1.1-1.5,1.1h0Z"/>
      <path class="cls-2" d="M184.48,368.36c.11,0,.22.02.32.05.56.18.88.78.7,1.34l-2.84,9.09-.12.39.19.36,4.1,7.99.79,1.54.94-1.46,4.86-7.54.22-.34-.08-.4-1.92-9.33c-.12-.58.26-1.15.83-1.27.07-.01.15-.02.22-.02.51,0,.95.36,1.05.86l1.07,5.19.49,2.4,1.33-2.06,2.72-4.22c.39-.61,1.05-.97,1.78-.97.4,0,.8.12,1.14.34.47.3.8.78.92,1.33s.02,1.11-.29,1.59l-2.72,4.23-1.32,2.05,2.38-.54,5.18-1.16c.08-.02.16-.03.24-.03.5,0,.93.35,1.04.84.13.58-.23,1.15-.81,1.28l-9.29,2.09-.4.09-.22.34-4.86,7.55-.94,1.46,1.73.08,8.96.44.41.02.31-.27,7.12-6.33c.2-.18.45-.27.71-.27.31,0,.6.13.8.36.39.44.35,1.12-.09,1.52l-3.96,3.52-1.83,1.63,2.44.12,5.02.25c.56.03,1.08.27,1.46.69s.57.96.54,1.52c-.03.56-.27,1.08-.69,1.46-.39.35-.89.55-1.41.55h-.11l-5.02-.25-2.44-.12,1.66,1.8,3.6,3.9c.4.43.37,1.11-.06,1.52-.2.18-.46.28-.73.28-.3,0-.58-.12-.79-.34l-6.45-7-.28-.3-.41-.02-8.97-.44-1.73-.08.79,1.54,4.1,7.98.19.36.39.13,9.04,3c.56.19.87.79.68,1.35-.15.44-.56.74-1.02.74-.11,0-.23-.02-.34-.06l-5.03-1.67-2.32-.77,1.12,2.18,2.3,4.47c.26.5.3,1.07.13,1.61-.17.54-.54.97-1.04,1.23-.3.15-.62.23-.96.23-.22,0-.44-.03-.65-.1-.53-.17-.97-.54-1.23-1.04l-2.3-4.47-1.12-2.17-.73,2.33-1.58,5.07c-.14.45-.55.75-1.02.75-.11,0-.22-.02-.32-.05-.56-.18-.88-.78-.7-1.34l2.84-9.09.12-.39-.19-.36-4.1-7.99-.79-1.54-.94,1.46-4.86,7.54-.22.34.08.4,1.92,9.33c.12.58-.26,1.15-.83,1.27-.07.01-.15.02-.22.02-.51,0-.95-.36-1.05-.86l-1.07-5.19-.49-2.4-1.33,2.06-2.72,4.22c-.39.61-1.05.97-1.78.97-.4,0-.8-.12-1.14-.34-.47-.31-.8-.78-.92-1.33s-.02-1.11.29-1.59l2.72-4.23,1.32-2.05-2.38.54-5.18,1.16c-.08.02-.16.03-.24.03-.5,0-.93-.35-1.04-.84-.13-.58.23-1.15.81-1.28l9.29-2.09.4-.09.22-.34,4.86-7.55.94-1.46-1.73-.08-8.96-.44-.41-.02-.31.27-7.12,6.33c-.2.17-.45.27-.71.27-.31,0-.6-.13-.8-.36-.39-.44-.35-1.12.09-1.52l3.96-3.52,1.83-1.63-2.44-.12-5.02-.25c-.56-.03-1.08-.27-1.46-.69s-.57-.96-.54-1.52c.03-.56.27-1.08.69-1.46.39-.35.89-.55,1.41-.55h.11l5.02.25,2.44.12-1.66-1.8-3.6-3.9c-.4-.43-.37-1.11.06-1.52.2-.18.46-.28.73-.28.3,0,.58.12.79.34l6.45,7,.28.3.41.02,8.97.44,1.73.08-.79-1.54-4.1-7.98-.19-.36-.39-.13-9.04-3c-.56-.19-.87-.79-.68-1.35.15-.44.56-.74,1.02-.74.11,0,.23.02.34.06l5.03,1.67,2.32.77-1.12-2.18-2.3-4.47c-.26-.5-.3-1.07-.13-1.61.17-.54.54-.97,1.04-1.23.3-.15.62-.23.96-.23.22,0,.44.03.65.1.53.17.97.54,1.23,1.04l2.3,4.47,1.12,2.17.73-2.33,1.58-5.07c.14-.45.55-.75,1.02-.75M184.48,367.36c-.88,0-1.7.57-1.98,1.46l-1.58,5.07-2.3-4.47c-.39-.76-1.06-1.3-1.81-1.54-.31-.1-.63-.15-.95-.15-.48,0-.96.11-1.42.34-1.53.78-2.13,2.66-1.34,4.19l2.3,4.47-5.03-1.67c-.22-.07-.44-.11-.65-.11-.87,0-1.68.55-1.97,1.42-.36,1.09.23,2.26,1.31,2.62l9.04,3,4.1,7.98-8.97-.44-6.45-7c-.41-.44-.97-.67-1.52-.67-.5,0-1.01.18-1.4.55-.84.78-.9,2.09-.12,2.93l3.6,3.9-5.02-.25h-.16c-.8,0-1.53.3-2.08.81-.59.53-.98,1.29-1.02,2.15-.08,1.71,1.24,3.17,2.95,3.26l5.02.25-3.96,3.52c-.86.76-.93,2.07-.17,2.93.41.46.98.69,1.55.69.49,0,.98-.17,1.38-.52l7.12-6.33,8.96.44-4.86,7.55-9.29,2.09c-1.12.25-1.82,1.36-1.57,2.48.22.96,1.07,1.62,2.02,1.62.15,0,.3-.02.46-.05l5.18-1.16-2.72,4.23c-.47.72-.59,1.56-.43,2.34.17.78.63,1.49,1.35,1.96.52.34,1.1.5,1.68.5,1.02,0,2.02-.5,2.62-1.42l2.72-4.22,1.07,5.19c.2.98,1.07,1.66,2.03,1.66.14,0,.28-.01.42-.04,1.12-.23,1.84-1.33,1.61-2.45l-1.92-9.33,4.86-7.54,4.1,7.99-2.84,9.09c-.34,1.09.27,2.25,1.36,2.6.21.06.41.09.62.09.88,0,1.7-.57,1.98-1.46l1.58-5.07,2.3,4.47c.39.76,1.06,1.3,1.81,1.54.31.1.63.15.95.15.48,0,.96-.11,1.42-.34,1.53-.78,2.13-2.66,1.34-4.19l-2.3-4.47,5.03,1.67c.22.07.44.11.65.11.87,0,1.68-.55,1.97-1.42.36-1.09-.23-2.26-1.31-2.62l-9.04-3-4.1-7.98,8.97.44,6.45,7c.41.44.97.67,1.52.67.5,0,1.01-.18,1.4-.55.84-.78.9-2.09.12-2.93l-3.6-3.9,5.02.25h.16c.8,0,1.53-.3,2.08-.81.59-.53.98-1.29,1.02-2.15.08-1.71-1.24-3.17-2.95-3.26l-5.02-.25,3.96-3.52c.86-.76.93-2.07.17-2.93-.41-.46-.98-.69-1.55-.69-.49,0-.98.17-1.38.52l-7.12,6.33-8.96-.44,4.86-7.55,9.29-2.09c1.12-.25,1.82-1.36,1.57-2.48-.22-.96-1.07-1.62-2.02-1.62-.15,0-.3.02-.46.05l-5.18,1.16,2.72-4.23c.47-.72.59-1.56.43-2.34-.17-.78-.63-1.49-1.35-1.96-.52-.34-1.1-.5-1.68-.5-1.02,0-2.02.5-2.62,1.42l-2.72,4.22-1.07-5.19c-.2-.98-1.07-1.66-2.03-1.66-.14,0-.28.01-.42.04-1.12.23-1.84,1.33-1.61,2.45l1.92,9.33-4.86,7.54-4.1-7.99,2.84-9.09c.34-1.09-.27-2.25-1.36-2.6-.21-.06-.41-.09-.62-.09h0Z"/>
    </g>
    <g>
      <path class="cls-2" d="M118.36,299.81c-.16,0-.32-.02-.47-.07-.4-.12-.73-.4-.92-.77-.2-.37-.23-.8-.11-1.2l2.9-9.29-4.59-8.94-5.44,8.44,1.96,9.53c.18.85-.37,1.68-1.22,1.86-.1.02-.21.03-.32.03-.74,0-1.39-.53-1.54-1.26l-1.32-6.39-3.39,5.25c-.48.75-1.3,1.2-2.2,1.2-.5,0-.99-.14-1.41-.42-.58-.38-.99-.96-1.14-1.64-.15-.68-.02-1.38.36-1.97l3.39-5.25-6.37,1.43c-.11.03-.23.04-.35.04-.73,0-1.37-.52-1.53-1.23-.19-.85.34-1.69,1.19-1.88l9.49-2.13,5.44-8.45-10.03-.49-7.27,6.47c-.29.26-.66.4-1.04.4-.45,0-.88-.19-1.18-.53-.58-.65-.52-1.65.13-2.22l4.88-4.34-6.24-.31c-.7-.03-1.34-.34-1.81-.85-.47-.52-.71-1.18-.67-1.88s.34-1.34.85-1.8c.48-.44,1.1-.68,1.75-.68l6.38.31-4.43-4.8c-.59-.64-.55-1.63.09-2.22.29-.27.67-.42,1.07-.42.44,0,.86.18,1.16.51l6.59,7.15,10.04.49-4.59-8.93-9.24-3.07c-.82-.27-1.27-1.16-1-1.99.21-.64.81-1.08,1.49-1.08.17,0,.33.03.5.08l6.19,2.06-2.85-5.56c-.32-.62-.38-1.33-.16-1.99.21-.66.67-1.2,1.29-1.52.37-.19.77-.29,1.19-.29.27,0,.54.04.8.13.66.21,1.2.67,1.52,1.29l2.86,5.56,1.94-6.23c.21-.66.81-1.1,1.5-1.1.16,0,.32.02.47.07.4.13.73.4.93.77.19.37.23.8.11,1.2l-2.9,9.29,4.59,8.94,5.44-8.44-1.96-9.53c-.18-.85.37-1.68,1.22-1.86.1-.02.21-.03.32-.03.74,0,1.39.53,1.54,1.26l1.32,6.39,3.39-5.25c.48-.75,1.3-1.2,2.2-1.2.5,0,.99.14,1.41.42.59.38.99.96,1.14,1.64s.02,1.38-.36,1.96l-3.39,5.25,6.37-1.43c.11-.03.23-.04.35-.04.73,0,1.37.52,1.53,1.23.19.85-.34,1.69-1.19,1.88l-9.49,2.13-5.45,8.45,10.03.49,7.27-6.47c.29-.26.66-.4,1.04-.4.45,0,.88.19,1.18.53.58.65.52,1.65-.13,2.22l-4.88,4.34,6.24.31c.7.03,1.34.34,1.81.85.47.52.71,1.18.67,1.88-.03.7-.34,1.34-.85,1.8-.48.44-1.1.68-1.75.68h-.13l-6.24-.31,4.43,4.8c.28.31.43.71.41,1.13s-.2.81-.51,1.09c-.29.27-.67.42-1.07.42-.44,0-.85-.18-1.16-.51l-6.59-7.15-10.04-.49,4.59,8.93,9.24,3.07c.82.27,1.27,1.16,1,1.99-.21.64-.81,1.08-1.49,1.08-.17,0-.33-.03-.5-.08l-6.19-2.06,2.85,5.56c.32.62.38,1.33.16,1.99-.21.66-.67,1.21-1.29,1.52-.37.19-.77.29-1.19.29-.27,0-.54-.04-.8-.13-.66-.21-1.2-.67-1.52-1.29l-2.86-5.56-1.94,6.23c-.21.66-.81,1.1-1.5,1.1h0Z"/>
      <path class="cls-2" d="M112.48,249.36c.11,0,.22.02.32.05.56.18.88.78.7,1.34l-2.84,9.09-.12.39.19.36,4.1,7.99.79,1.54.94-1.46,4.86-7.54.22-.34-.08-.4-1.92-9.33c-.12-.58.26-1.15.83-1.27.07,0,.15-.02.22-.02.51,0,.95.36,1.05.86l1.07,5.19.49,2.4,1.33-2.06,2.72-4.22c.39-.61,1.05-.97,1.78-.97.4,0,.8.12,1.14.34.47.3.8.78.92,1.33s.02,1.11-.29,1.59l-2.72,4.23-1.32,2.05,2.38-.54,5.18-1.16c.08-.02.16-.03.24-.03.5,0,.93.35,1.04.84.13.58-.23,1.15-.81,1.28l-9.29,2.09-.4.09-.22.34-4.86,7.55-.94,1.46,1.73.08,8.96.44.41.02.31-.27,7.12-6.33c.2-.18.45-.27.71-.27.31,0,.6.13.8.36.39.44.35,1.12-.09,1.52l-3.96,3.52-1.83,1.63,2.44.12,5.02.25c.56.03,1.08.27,1.46.69s.57.96.54,1.52c-.03.56-.27,1.08-.69,1.46-.39.35-.89.55-1.41.55h-.11l-5.02-.25-2.44-.12,1.66,1.8,3.6,3.9c.19.21.29.48.28.77,0,.29-.13.55-.34.75-.2.18-.46.28-.73.28-.3,0-.58-.12-.79-.34l-6.45-7-.28-.3-.41-.02-8.97-.44-1.73-.08.79,1.54,4.1,7.98.19.36.39.13,9.04,3c.56.19.87.79.68,1.35-.15.44-.56.74-1.02.74-.11,0-.23-.02-.34-.06l-5.03-1.67-2.32-.77,1.12,2.18,2.3,4.47c.26.5.3,1.07.13,1.61-.17.54-.54.97-1.04,1.23-.3.15-.62.23-.96.23-.22,0-.44-.03-.65-.1-.53-.17-.97-.54-1.23-1.04l-2.3-4.47-1.12-2.17-.73,2.33-1.58,5.07c-.14.45-.55.75-1.02.75-.11,0-.22-.02-.32-.05-.56-.18-.88-.78-.7-1.34l2.84-9.09.12-.39-.19-.36-4.1-7.99-.79-1.54-.94,1.46-4.86,7.54-.22.34.08.4,1.92,9.33c.12.58-.26,1.15-.83,1.27-.07.01-.15.02-.22.02-.51,0-.95-.36-1.05-.86l-1.07-5.19-.49-2.4-1.33,2.06-2.72,4.22c-.39.61-1.05.97-1.78.97-.4,0-.8-.12-1.14-.34-.47-.31-.8-.78-.92-1.33-.12-.55-.02-1.11.29-1.59l2.72-4.23,1.32-2.05-2.38.54-5.18,1.16c-.08.02-.16.03-.24.03-.5,0-.93-.35-1.04-.84-.06-.28-.01-.57.14-.81s.39-.41.67-.47l9.29-2.09.4-.09.22-.34,4.86-7.55.94-1.46-1.73-.08-8.96-.44-.41-.02-.31.27-7.12,6.33c-.2.18-.45.27-.71.27-.31,0-.6-.13-.8-.36-.39-.44-.35-1.12.09-1.52l3.96-3.52,1.83-1.63-2.44-.12-5.02-.25c-.56-.03-1.08-.27-1.46-.69s-.57-.96-.54-1.52.27-1.08.69-1.46c.39-.35.89-.55,1.41-.55h.11l5.02.25,2.44.12-1.66-1.8-3.6-3.9c-.4-.43-.37-1.11.06-1.52.2-.18.46-.28.73-.28.3,0,.58.12.79.34l6.45,7,.28.3.41.02,8.97.44,1.73.08-.79-1.54-4.1-7.98-.19-.36-.39-.13-9.04-3c-.56-.19-.87-.79-.68-1.35.15-.44.56-.74,1.02-.74.11,0,.23.02.34.06l5.03,1.67,2.32.77-1.12-2.18-2.3-4.47c-.26-.5-.3-1.07-.13-1.61.17-.54.54-.97,1.04-1.23.3-.15.62-.23.96-.23.22,0,.44.03.65.1.53.17.97.54,1.23,1.04l2.3,4.47,1.12,2.17.73-2.33,1.58-5.07c.14-.45.55-.75,1.02-.75M112.48,248.36c-.88,0-1.7.57-1.98,1.46l-1.58,5.07-2.3-4.47c-.39-.76-1.06-1.3-1.81-1.54-.31-.1-.63-.15-.95-.15-.48,0-.96.11-1.42.34-1.53.78-2.13,2.66-1.34,4.19l2.3,4.47-5.03-1.67c-.22-.07-.44-.11-.65-.11-.87,0-1.68.55-1.97,1.42-.36,1.09.23,2.26,1.31,2.62l9.04,3,4.1,7.98-8.97-.44-6.45-7c-.41-.44-.97-.67-1.52-.67-.5,0-1.01.18-1.4.55-.84.78-.9,2.09-.12,2.93l3.6,3.9-5.02-.25h-.16c-.8,0-1.53.3-2.08.81-.59.53-.98,1.29-1.02,2.15-.08,1.71,1.24,3.17,2.95,3.26l5.02.25-3.96,3.52c-.86.76-.93,2.07-.17,2.93.41.46.98.69,1.55.69.49,0,.98-.17,1.38-.52l7.12-6.33,8.96.44-4.86,7.55-9.29,2.09c-1.12.25-1.82,1.36-1.57,2.48.22.96,1.07,1.62,2.02,1.62.15,0,.3-.02.46-.05l5.18-1.16-2.72,4.23c-.47.72-.59,1.56-.43,2.34.17.78.63,1.49,1.35,1.96.52.34,1.1.5,1.68.5,1.02,0,2.02-.5,2.62-1.42l2.72-4.22,1.07,5.19c.2.98,1.07,1.66,2.03,1.66.14,0,.28-.01.42-.04,1.12-.23,1.84-1.33,1.61-2.45l-1.92-9.33,4.86-7.54,4.1,7.99-2.84,9.09c-.34,1.09.27,2.25,1.36,2.6.21.06.41.09.62.09.88,0,1.7-.57,1.98-1.46l1.58-5.07,2.3,4.47c.39.76,1.06,1.3,1.81,1.54.31.1.63.15.95.15.48,0,.96-.11,1.42-.34,1.53-.78,2.13-2.66,1.34-4.19l-2.3-4.47,5.03,1.67c.22.07.44.11.65.11.87,0,1.68-.55,1.97-1.42.36-1.09-.23-2.26-1.31-2.62l-9.04-3-4.1-7.98,8.97.44,6.45,7c.41.44.97.67,1.52.67.5,0,1.01-.18,1.4-.55.84-.78.9-2.09.12-2.93l-3.6-3.9,5.02.25h.16c.8,0,1.53-.3,2.08-.81.59-.53.98-1.29,1.02-2.15.08-1.71-1.24-3.17-2.95-3.26l-5.02-.25,3.96-3.52c.86-.76.93-2.07.17-2.93-.41-.46-.98-.69-1.55-.69-.49,0-.98.17-1.38.52l-7.12,6.33-8.96-.44,4.86-7.55,9.29-2.09c1.12-.25,1.82-1.36,1.57-2.48-.22-.96-1.07-1.62-2.02-1.62-.15,0-.3.02-.46.05l-5.18,1.16,2.72-4.23c.47-.72.59-1.56.43-2.34-.17-.78-.63-1.49-1.35-1.96-.52-.34-1.1-.5-1.68-.5-1.02,0-2.02.5-2.62,1.42l-2.72,4.22-1.07-5.19c-.2-.98-1.07-1.66-2.03-1.66-.14,0-.28,0-.42.04-1.12.23-1.84,1.33-1.61,2.45l1.92,9.33-4.86,7.54-4.1-7.99,2.84-9.09c.34-1.09-.27-2.25-1.36-2.6-.21-.06-.41-.09-.62-.09h0Z"/>
    </g>
    <g>
      <path class="cls-2" d="M391.36,302.81c-.16,0-.32-.02-.47-.07-.4-.12-.73-.4-.92-.77-.2-.37-.23-.8-.11-1.2l2.9-9.29-4.59-8.94-5.44,8.44,1.96,9.53c.17.85-.37,1.68-1.22,1.86-.1.02-.21.03-.32.03-.74,0-1.39-.53-1.54-1.26l-1.32-6.39-3.39,5.25c-.48.75-1.3,1.2-2.2,1.2-.5,0-.99-.14-1.41-.42-.59-.38-.99-.96-1.14-1.64s-.02-1.38.36-1.97l3.39-5.25-6.37,1.43c-.11.03-.23.04-.35.04-.73,0-1.37-.52-1.53-1.23-.09-.41-.02-.83.2-1.19.22-.36.57-.6.98-.69l9.49-2.13,5.44-8.45-10.03-.49-7.27,6.47c-.29.26-.66.4-1.04.4-.45,0-.88-.19-1.18-.53-.58-.65-.52-1.65.13-2.22l4.88-4.34-6.24-.31c-.7-.03-1.34-.34-1.8-.85-.47-.52-.71-1.18-.67-1.88.03-.7.34-1.34.85-1.8.48-.44,1.1-.68,1.75-.68h.13l6.24.31-4.43-4.8c-.59-.64-.55-1.63.09-2.22.29-.27.67-.42,1.07-.42.44,0,.86.18,1.16.51l6.59,7.15,10.04.49-4.59-8.93-9.24-3.07c-.4-.13-.72-.41-.91-.79s-.22-.8-.09-1.2c.21-.64.81-1.08,1.49-1.08.17,0,.33.03.5.08l6.2,2.06-2.86-5.56c-.32-.62-.38-1.33-.16-1.99s.67-1.2,1.29-1.52c.37-.19.77-.29,1.19-.29.27,0,.54.04.8.13.66.21,1.21.67,1.52,1.29l2.85,5.56,1.95-6.23c.21-.66.81-1.1,1.5-1.1.16,0,.32.02.47.07.83.26,1.29,1.14,1.03,1.97l-2.9,9.29,4.59,8.94,5.44-8.44-1.96-9.53c-.17-.85.38-1.68,1.22-1.86.1-.02.21-.03.32-.03.74,0,1.39.53,1.54,1.26l1.32,6.39,3.38-5.25c.48-.75,1.3-1.2,2.2-1.2.5,0,.99.14,1.41.42.58.38.99.96,1.14,1.64s.02,1.38-.36,1.96l-3.39,5.25,6.37-1.43c.12-.03.23-.04.35-.04.73,0,1.37.52,1.53,1.23.09.41.02.83-.2,1.19s-.58.6-.99.69l-9.49,2.13-5.44,8.45,10.03.49,7.27-6.47c.29-.26.66-.4,1.04-.4.45,0,.88.19,1.18.53.58.65.52,1.64-.13,2.22l-4.88,4.34,6.24.31c.7.03,1.34.34,1.81.85.47.52.71,1.18.67,1.88-.03.7-.34,1.34-.85,1.8-.48.44-1.1.68-1.75.68h-.13l-6.24-.31,4.43,4.8c.28.31.43.71.41,1.13s-.2.81-.5,1.09c-.29.27-.67.42-1.07.42-.44,0-.86-.18-1.16-.51l-6.59-7.15-10.04-.49,4.59,8.93,9.24,3.07c.82.27,1.27,1.16,1,1.99-.21.64-.81,1.08-1.49,1.08-.17,0-.33-.03-.5-.08l-6.2-2.05,2.85,5.56c.32.62.38,1.33.16,1.99-.21.66-.67,1.2-1.29,1.52-.37.19-.77.29-1.19.29-.27,0-.54-.04-.8-.13-.66-.21-1.2-.67-1.52-1.29l-2.86-5.56-1.95,6.23c-.21.66-.81,1.11-1.5,1.11h.03Z"/>
      <path class="cls-2" d="M385.48,252.36c.11,0,.22.02.32.05.56.18.88.78.7,1.34l-2.84,9.09-.12.39.19.36,4.1,7.99.79,1.54.94-1.46,4.86-7.54.22-.34-.08-.4-1.92-9.33c-.12-.58.26-1.15.83-1.27.07,0,.15-.02.22-.02.51,0,.95.36,1.05.86l1.07,5.19.49,2.4,1.33-2.06,2.72-4.22c.39-.61,1.05-.97,1.78-.97.4,0,.8.12,1.14.34.47.31.8.78.92,1.33.12.55.02,1.11-.29,1.59l-2.72,4.23-1.32,2.05,2.38-.54,5.18-1.16c.08-.02.16-.03.24-.03.5,0,.93.35,1.04.84.13.58-.23,1.15-.81,1.28l-9.29,2.09-.4.09-.22.34-4.86,7.55-.94,1.46,1.73.08,8.96.44.41.02.31-.27,7.12-6.33c.2-.17.45-.27.71-.27.31,0,.6.13.8.36.39.44.35,1.12-.09,1.52l-3.96,3.52-1.83,1.63,2.44.12,5.02.25c.56.03,1.08.27,1.46.69s.57.96.54,1.52-.27,1.08-.69,1.46c-.39.35-.89.55-1.41.55h-.11l-5.02-.25-2.44-.12,1.66,1.8,3.6,3.9c.19.21.29.48.28.77-.01.29-.13.55-.34.75-.2.18-.46.28-.73.28-.3,0-.58-.12-.79-.34l-6.45-7-.28-.3-.41-.02-8.97-.44-1.73-.08.79,1.54,4.1,7.98.19.36.39.13,9.04,3c.56.19.87.79.68,1.35-.15.44-.56.74-1.02.74-.11,0-.23-.02-.34-.06l-5.03-1.67-2.32-.77,1.12,2.18,2.3,4.47c.26.5.3,1.07.13,1.61-.17.54-.54.97-1.04,1.23-.3.15-.62.23-.96.23-.22,0-.44-.03-.65-.1-.53-.17-.97-.54-1.23-1.04l-2.3-4.47-1.12-2.17-.73,2.33-1.58,5.07c-.14.45-.55.75-1.02.75-.11,0-.22-.02-.32-.05-.56-.18-.88-.78-.7-1.34l2.84-9.09.12-.39-.19-.36-4.1-7.99-.79-1.54-.94,1.46-4.86,7.54-.22.34.08.4,1.92,9.33c.12.58-.26,1.15-.83,1.27-.07.01-.15.02-.22.02-.51,0-.95-.36-1.05-.86l-1.07-5.19-.49-2.4-1.33,2.06-2.72,4.22c-.39.61-1.05.97-1.78.97-.4,0-.8-.12-1.14-.34-.47-.31-.8-.78-.92-1.33-.12-.55-.02-1.11.29-1.59l2.72-4.23,1.32-2.05-2.38.54-5.18,1.16c-.08.02-.16.03-.24.03-.5,0-.93-.35-1.04-.84-.06-.28-.01-.57.14-.81.15-.24.39-.41.67-.47l9.29-2.09.4-.09.22-.34,4.86-7.55.94-1.46-1.73-.08-8.96-.44-.41-.02-.31.27-7.12,6.33c-.2.18-.45.27-.71.27-.31,0-.6-.13-.8-.36-.39-.44-.35-1.12.09-1.52l3.96-3.52,1.83-1.63-2.44-.12-5.02-.25c-.56-.03-1.08-.27-1.46-.69s-.57-.96-.54-1.52.27-1.08.69-1.46c.39-.35.89-.55,1.41-.55h.11l5.02.25,2.44.12-1.66-1.8-3.6-3.9c-.4-.43-.37-1.11.06-1.52.2-.18.46-.28.73-.28.3,0,.58.12.79.34l6.45,7,.28.3.41.02,8.97.44,1.73.08-.79-1.54-4.1-7.98-.19-.36-.39-.13-9.04-3c-.56-.19-.87-.79-.68-1.35.15-.44.56-.74,1.02-.74.11,0,.23.02.34.06l5.03,1.67,2.32.77-1.12-2.18-2.3-4.47c-.26-.5-.3-1.07-.13-1.61.17-.54.54-.97,1.04-1.23.3-.15.62-.23.96-.23.22,0,.44.03.65.1.53.17.97.54,1.23,1.04l2.3,4.47,1.12,2.17.73-2.33,1.58-5.07c.14-.45.55-.75,1.02-.75M385.48,251.36c-.88,0-1.7.57-1.98,1.46l-1.58,5.07-2.3-4.47c-.39-.76-1.06-1.3-1.81-1.54-.31-.1-.63-.15-.95-.15-.48,0-.96.11-1.42.34-1.53.78-2.13,2.66-1.34,4.19l2.3,4.47-5.03-1.67c-.22-.07-.44-.11-.65-.11-.87,0-1.68.55-1.97,1.42-.36,1.09.23,2.26,1.32,2.62l9.04,3,4.1,7.98-8.97-.44-6.45-7c-.41-.44-.97-.67-1.52-.67-.5,0-1.01.18-1.4.55-.84.78-.9,2.09-.12,2.93l3.6,3.9-5.02-.25h-.16c-.8,0-1.53.3-2.08.81-.59.53-.98,1.29-1.02,2.15-.08,1.71,1.24,3.17,2.95,3.26l5.02.25-3.96,3.52c-.86.76-.93,2.07-.17,2.93.41.46.98.69,1.55.69.49,0,.98-.17,1.38-.52l7.12-6.33,8.96.44-4.86,7.55-9.29,2.09c-1.12.25-1.82,1.36-1.57,2.48.22.96,1.07,1.62,2.02,1.62.15,0,.3-.02.46-.05l5.18-1.16-2.72,4.23c-.47.72-.59,1.56-.43,2.34.17.78.63,1.49,1.35,1.96.52.34,1.1.5,1.68.5,1.02,0,2.02-.5,2.62-1.42l2.72-4.22,1.07,5.19c.2.98,1.07,1.66,2.03,1.66.14,0,.28-.01.42-.04,1.12-.23,1.84-1.33,1.61-2.45l-1.92-9.33,4.86-7.54,4.1,7.99-2.84,9.09c-.34,1.09.27,2.25,1.36,2.6.21.06.41.09.62.09.88,0,1.7-.57,1.98-1.46l1.58-5.07,2.3,4.47c.39.76,1.06,1.3,1.81,1.54.31.1.63.15.95.15.48,0,.96-.11,1.42-.34,1.53-.78,2.13-2.66,1.34-4.19l-2.3-4.47,5.03,1.67c.22.07.44.11.65.11.87,0,1.68-.55,1.97-1.42.36-1.09-.23-2.26-1.31-2.62l-9.04-3-4.1-7.98,8.97.44,6.45,7c.41.44.97.67,1.52.67.5,0,1.01-.18,1.4-.55.84-.78.9-2.09.12-2.93l-3.6-3.9,5.02.25h.16c.8,0,1.53-.3,2.08-.81.59-.53.98-1.29,1.02-2.15.08-1.71-1.24-3.17-2.95-3.26l-5.02-.25,3.96-3.52c.86-.76.93-2.07.17-2.93-.41-.46-.98-.69-1.55-.69-.49,0-.98.17-1.38.52l-7.12,6.33-8.96-.44,4.86-7.55,9.29-2.09c1.12-.25,1.82-1.36,1.57-2.48-.22-.96-1.07-1.62-2.02-1.62-.15,0-.3.02-.46.05l-5.18,1.16,2.72-4.23c.47-.72.59-1.56.43-2.34-.17-.78-.63-1.49-1.35-1.96-.52-.34-1.1-.5-1.68-.5-1.02,0-2.02.5-2.62,1.42l-2.72,4.22-1.07-5.19c-.2-.98-1.07-1.66-2.03-1.66-.14,0-.28,0-.42.04-1.12.23-1.84,1.33-1.61,2.45l1.92,9.33-4.86,7.54-4.1-7.99,2.84-9.09c.34-1.09-.27-2.25-1.36-2.6-.21-.06-.41-.09-.62-.09h-.01Z"/>
    </g>
    <g>
      <path class="cls-2" d="M186.36,187.81c-.16,0-.32-.02-.47-.07-.83-.26-1.29-1.14-1.03-1.97l2.9-9.29-4.59-8.94-5.44,8.44,1.96,9.53c.18.85-.37,1.68-1.22,1.86-.1.02-.21.03-.32.03-.74,0-1.39-.53-1.54-1.26l-1.32-6.39-3.39,5.25c-.48.75-1.3,1.2-2.2,1.2-.5,0-.99-.14-1.41-.42-.58-.38-.99-.96-1.14-1.64s-.02-1.38.36-1.96l3.39-5.25-6.37,1.43c-.11.03-.23.04-.35.04-.73,0-1.37-.52-1.53-1.23-.19-.85.34-1.69,1.19-1.88l9.49-2.13,5.44-8.45-10.03-.49-7.27,6.47c-.29.26-.66.4-1.05.4-.45,0-.88-.19-1.18-.53-.58-.65-.52-1.65.13-2.22l4.88-4.34-6.24-.31c-.7-.03-1.34-.34-1.81-.85s-.71-1.18-.67-1.88c.03-.7.34-1.34.85-1.8.48-.44,1.1-.68,1.75-.68l6.38.31-4.43-4.8c-.59-.64-.55-1.63.09-2.22.29-.27.67-.42,1.07-.42.44,0,.86.18,1.16.51l6.59,7.15,10.04.49-4.59-8.93-9.24-3.07c-.82-.27-1.27-1.16-1-1.99.21-.64.81-1.08,1.49-1.08.17,0,.33.03.5.08l6.19,2.06-2.85-5.56c-.32-.62-.38-1.33-.16-1.99.21-.66.67-1.2,1.29-1.52.37-.19.77-.29,1.19-.29.27,0,.54.04.8.13.66.21,1.2.67,1.52,1.29l2.86,5.56,1.94-6.23c.21-.66.81-1.1,1.5-1.1.16,0,.32.02.47.07.4.13.73.4.93.77.19.37.23.8.11,1.2l-2.9,9.29,4.59,8.94,5.44-8.44-1.96-9.53c-.18-.85.37-1.68,1.22-1.86.1-.02.21-.03.32-.03.74,0,1.39.53,1.54,1.26l1.32,6.39,3.39-5.25c.48-.75,1.3-1.2,2.2-1.2.5,0,.99.14,1.41.42.59.38.99.96,1.14,1.64s.02,1.38-.36,1.96l-3.39,5.25,6.37-1.43c.11-.03.23-.04.35-.04.73,0,1.37.52,1.53,1.23.19.85-.34,1.69-1.19,1.88l-9.49,2.13-5.45,8.45,10.03.49,7.27-6.47c.29-.26.66-.4,1.04-.4.45,0,.88.19,1.18.53.58.65.52,1.65-.13,2.22l-4.88,4.34,6.24.31c.7.03,1.34.34,1.81.85.47.52.71,1.18.67,1.88-.03.7-.34,1.34-.85,1.8-.48.44-1.1.68-1.75.68l-6.37-.31,4.43,4.8c.59.64.55,1.63-.09,2.22-.29.27-.67.42-1.07.42-.44,0-.86-.18-1.16-.51l-6.59-7.15-10.04-.49,4.59,8.93,9.24,3.07c.82.27,1.27,1.16,1,1.99-.21.64-.81,1.08-1.49,1.08-.17,0-.33-.03-.5-.08l-6.19-2.06,2.85,5.56c.32.62.38,1.33.16,1.99s-.67,1.2-1.29,1.52c-.37.19-.77.29-1.19.29-.27,0-.54-.04-.8-.13-.66-.21-1.2-.67-1.52-1.29l-2.86-5.56-1.94,6.23c-.21.66-.81,1.1-1.5,1.1Z"/>
      <path class="cls-2" d="M180.48,137.36c.11,0,.22.02.32.05.56.18.88.78.7,1.34l-2.84,9.09-.12.39.19.36,4.1,7.99.79,1.54.94-1.46,4.86-7.54.22-.34-.08-.4-1.92-9.33c-.12-.58.26-1.15.83-1.27.07,0,.15-.02.22-.02.51,0,.95.36,1.05.86l1.07,5.19.49,2.4,1.33-2.06,2.72-4.22c.39-.61,1.05-.97,1.78-.97.4,0,.8.12,1.14.34.47.3.8.78.92,1.33s.02,1.11-.29,1.59l-2.72,4.23-1.32,2.05,2.38-.54,5.18-1.16c.08-.02.16-.03.24-.03.5,0,.93.35,1.04.84.13.58-.23,1.15-.81,1.28l-9.29,2.09-.4.09-.22.34-4.86,7.55-.94,1.46,1.73.08,8.96.44.41.02.31-.27,7.12-6.33c.2-.18.45-.27.71-.27.31,0,.6.13.8.36.39.44.35,1.12-.09,1.52l-3.96,3.52-1.83,1.63,2.44.12,5.02.25c.56.03,1.08.27,1.46.69s.57.96.54,1.52c-.03.56-.27,1.08-.69,1.46-.39.35-.89.55-1.41.55h-.11l-5.02-.25-2.44-.12,1.66,1.8,3.6,3.9c.19.21.29.48.28.77,0,.29-.13.55-.34.75-.2.18-.46.28-.73.28-.3,0-.58-.12-.79-.34l-6.45-7-.28-.3-.41-.02-8.97-.44-1.73-.08.79,1.54,4.1,7.98.19.36.39.13,9.04,3c.56.19.87.79.68,1.35-.15.44-.56.74-1.02.74-.11,0-.23-.02-.34-.06l-5.03-1.67-2.32-.77,1.12,2.18,2.3,4.47c.26.5.3,1.07.13,1.61s-.54.97-1.04,1.23c-.3.15-.62.23-.96.23-.22,0-.44-.03-.65-.1-.53-.17-.97-.54-1.23-1.04l-2.3-4.47-1.12-2.17-.73,2.33-1.58,5.07c-.14.45-.55.75-1.02.75-.11,0-.22-.02-.32-.05-.56-.18-.88-.78-.7-1.34l2.84-9.09.12-.39-.19-.36-4.1-7.99-.79-1.54-.94,1.46-4.86,7.54-.22.34.08.4,1.92,9.33c.12.58-.26,1.15-.83,1.27-.07,0-.15.02-.22.02-.51,0-.95-.36-1.05-.86l-1.07-5.19-.49-2.4-1.33,2.06-2.72,4.22c-.39.61-1.05.97-1.78.97-.4,0-.8-.12-1.14-.34-.47-.31-.8-.78-.92-1.33s-.02-1.11.29-1.59l2.72-4.23,1.32-2.05-2.38.54-5.18,1.16c-.08.02-.16.03-.24.03-.5,0-.93-.35-1.04-.84-.06-.28,0-.57.14-.81.15-.24.39-.41.67-.47l9.29-2.09.4-.09.22-.34,4.86-7.55.94-1.46-1.73-.08-8.96-.44-.41-.02-.31.27-7.12,6.33c-.2.18-.45.27-.71.27-.31,0-.6-.13-.8-.36-.39-.44-.35-1.12.09-1.52l3.96-3.52,1.83-1.63-2.44-.12-5.02-.25c-.56-.03-1.08-.27-1.46-.69s-.57-.96-.54-1.52c.03-.56.27-1.08.69-1.46.39-.35.89-.55,1.41-.55h.11l5.02.25,2.44.12-1.66-1.8-3.6-3.9c-.4-.43-.37-1.11.06-1.52.2-.18.46-.28.73-.28.3,0,.58.12.79.34l6.45,7,.28.3.41.02,8.97.44,1.73.08-.79-1.54-4.1-7.98-.19-.36-.39-.13-9.04-3c-.56-.19-.87-.79-.68-1.35.15-.44.56-.74,1.02-.74.11,0,.23.02.34.06l5.03,1.67,2.32.77-1.12-2.18-2.3-4.47c-.26-.5-.3-1.07-.13-1.61s.54-.97,1.04-1.23c.3-.15.62-.23.96-.23.22,0,.44.03.65.1.53.17.97.54,1.23,1.04l2.3,4.47,1.12,2.17.73-2.33,1.58-5.07c.14-.45.55-.75,1.02-.75M180.48,136.36c-.88,0-1.7.57-1.98,1.46l-1.58,5.07-2.3-4.47c-.39-.76-1.06-1.3-1.81-1.54-.31-.1-.63-.15-.95-.15-.48,0-.96.11-1.42.34-1.53.78-2.13,2.66-1.34,4.19l2.3,4.47-5.03-1.67c-.22-.07-.44-.11-.65-.11-.87,0-1.68.55-1.97,1.42-.36,1.09.23,2.26,1.31,2.62l9.04,3,4.1,7.98-8.97-.44-6.45-7c-.41-.44-.97-.67-1.52-.67-.5,0-1.01.18-1.4.55-.84.78-.9,2.09-.12,2.93l3.6,3.9-5.02-.25h-.16c-.8,0-1.53.3-2.08.81-.59.53-.98,1.29-1.02,2.15-.08,1.71,1.24,3.17,2.95,3.26l5.02.25-3.96,3.52c-.86.76-.93,2.07-.17,2.93.41.46.98.69,1.55.69.49,0,.98-.17,1.38-.52l7.12-6.33,8.96.44-4.86,7.55-9.29,2.09c-1.12.25-1.82,1.36-1.57,2.48.22.96,1.07,1.62,2.02,1.62.15,0,.3-.02.46-.05l5.18-1.16-2.72,4.23c-.47.72-.59,1.56-.43,2.34.17.78.63,1.49,1.35,1.96.52.34,1.1.5,1.68.5,1.02,0,2.02-.5,2.62-1.42l2.72-4.22,1.07,5.19c.2.98,1.07,1.66,2.03,1.66.14,0,.28,0,.42-.04,1.12-.23,1.84-1.33,1.61-2.45l-1.92-9.33,4.86-7.54,4.1,7.99-2.84,9.09c-.34,1.09.27,2.25,1.36,2.6.21.06.41.09.62.09.88,0,1.7-.57,1.98-1.46l1.58-5.07,2.3,4.47c.39.76,1.06,1.3,1.81,1.54.31.1.63.15.95.15.48,0,.96-.11,1.42-.34,1.53-.78,2.13-2.66,1.34-4.19l-2.3-4.47,5.03,1.67c.22.07.44.11.65.11.87,0,1.68-.55,1.97-1.42.36-1.09-.23-2.26-1.31-2.62l-9.04-3-4.1-7.98,8.97.44,6.45,7c.41.44.97.67,1.52.67.5,0,1.01-.18,1.4-.55.84-.78.9-2.09.12-2.93l-3.6-3.9,5.02.25h.16c.8,0,1.53-.3,2.08-.81.59-.53.98-1.29,1.02-2.15.08-1.71-1.24-3.17-2.95-3.26l-5.02-.25,3.96-3.52c.86-.76.93-2.07.17-2.93-.41-.46-.98-.69-1.55-.69-.49,0-.98.17-1.38.52l-7.12,6.33-8.96-.44,4.86-7.55,9.29-2.09c1.12-.25,1.82-1.36,1.57-2.48-.22-.96-1.07-1.62-2.02-1.62-.15,0-.3.02-.46.05l-5.18,1.16,2.72-4.23c.47-.72.59-1.56.43-2.34-.17-.78-.63-1.49-1.35-1.96-.52-.34-1.1-.5-1.68-.5-1.02,0-2.02.5-2.62,1.42l-2.72,4.22-1.07-5.19c-.2-.98-1.07-1.66-2.03-1.66-.14,0-.28,0-.42.04-1.12.23-1.84,1.33-1.61,2.45l1.92,9.33-4.86,7.54-4.1-7.99,2.84-9.09c.34-1.09-.27-2.25-1.36-2.6-.21-.06-.41-.09-.62-.09h0Z"/>
    </g>
  </g>
</svg>