<?xml version="1.0" encoding="UTF-8"?>
<svg id="a" data-name="Layer 1" xmlns="http://www.w3.org/2000/svg" viewBox="0 0 478.45 475.11">
  <g id="b" data-name="Layer 2">
    <g id="c" data-name="center layer">
      <circle id="d" data-name="&amp;lt;center&amp;gt;" cx="238.73" cy="233.15" r="100" style="fill: #ff0; stroke: #000; stroke-miterlimit: 10; stroke-width: 4px;"/>
    </g>
    <g id="e" data-name="outer layer">
      <path d="M473.42,275.79l-70.41-66.25,51.44-78.42c4.05-6.18-.11-14.43-7.49-14.86l-96.52-5.49-11.02-93.14c-.87-7.35-9.36-10.99-15.28-6.57l-77.47,57.83L178.38,4.62c-5.39-5.07-14.23-2.41-15.93,4.78l-22.18,94.1-93.63-5.33c-7.38-.42-12.45,7.31-9.12,13.91l43.5,86.34L5.86,254.52c-5.92,4.42-4.84,13.61,1.96,16.53l88.81,38.17-21.5,91.29c-1.7,7.2,5.04,13.54,12.12,11.4l92.57-27.84,42.2,83.75c3.33,6.6,12.56,7.13,16.62.94l53.01-80.84,86.17,37.03c6.8,2.93,14.21-2.61,13.34-9.95l-11.35-96.01,89.81-27.02c7.08-2.13,9.21-11.13,3.82-16.2ZM356.73,274.38c-22.77,65.18-94.06,99.55-159.23,76.77-65.18-22.77-99.55-94.06-76.77-159.23,22.77-65.18,94.06-99.55,159.23-76.77,65.18,22.77,99.55,94.06,76.77,159.23Z" style="fill: #ff0; stroke: #000; stroke-miterlimit: 10; stroke-width: 4px;"/>
    </g>
  </g>
</svg>