<?xml version="1.0" encoding="UTF-8"?>
<svg id="a" data-name="Layer 1" xmlns="http://www.w3.org/2000/svg" viewBox="0 0 527 523.19">
  <path id="b" data-name="cloud" d="M525,224.5c0,26.37-10.69,50.24-27.97,67.53-17.29,17.28-41.16,27.97-67.53,27.97h-88.04l40.67-85.31c20.88-43.8-33.39-84.68-69.72-52.52l-155.76,137.83h-59.15c-52.74,0-95.5-42.76-95.5-95.5,0-3.99.24-7.92.73-11.77,2.38-19.47,10.64-37.12,22.94-51.15,1.37-1.58,2.81-3.12,4.3-4.61,7.33-7.32,15.82-13.46,25.2-18.09h0s.01,0,.01,0c.56-.29,1.12-.56,1.69-.81,7.59-3.59,15.74-6.19,24.27-7.66-.76-5.25-1.15-10.61-1.15-16.07,0-3.07.12-6.11.37-9.11,3.34-41.74,29.51-77.04,66.01-93.42,7.54-3.39,15.51-5.96,23.82-7.62,7.15-1.43,14.55-2.18,22.13-2.18,9.84,0,19.38,1.26,28.47,3.64,31.18,8.14,57.08,29.34,71.51,57.41,6.04-5.91,13.1-10.79,20.88-14.35,9.38-4.3,19.81-6.7,30.81-6.7,36.78,0,67.3,26.84,73.03,62,.64,3.9.97,7.91.97,12,0,4.44-.39,8.78-1.14,13h12.64c52.74,0,95.5,42.76,95.5,95.5Z" style="fill: #29abe2; stroke: #000; stroke-miterlimit: 10; stroke-width: 4px;"/>
  <g id="c" data-name="bolt">
    <path d="M191.31,521.19c-2.56,0-5.12-1.45-6.53-3.69-1.36-2.17-1.47-4.7-.3-7.14l32.33-67.33,32.65-68.01-80.4-.36c-3.81-.02-6.11-2.52-6.99-4.86-.88-2.34-.8-5.74,2.05-8.26l174.72-154.62c1.44-1.28,3.14-1.95,4.9-1.95,2.56,0,5.12,1.45,6.54,3.69,1.36,2.16,1.48,4.69.32,7.13l-64.21,134.69,41.46.09,39.33.09c3.82,0,6.12,2.5,7,4.84.89,2.35.81,5.76-2.05,8.29l-175.91,155.46c-1.45,1.28-3.14,1.95-4.9,1.95Z" style="fill: #ff0; stroke-width: 0px;"/>
    <path d="M343.73,206.96h0c1.89,0,3.79,1.08,4.84,2.75.7,1.1,1.3,2.9.2,5.2l-49.27,103.36-13.58,28.48-2.72,5.71h6.32s38.3.09,38.3.09l39.33.09c3.52,0,4.82,2.72,5.13,3.55.32.84,1.14,3.74-1.51,6.08l-175.91,155.46c-1.09.96-2.29,1.45-3.58,1.45-1.89,0-3.79-1.08-4.84-2.76-.7-1.11-1.29-2.91-.19-5.21l32.33-67.33,31.28-65.16,2.74-5.7-6.33-.03-77.24-.35c-3.52-.02-4.81-2.73-5.13-3.57-.31-.83-1.13-3.73,1.51-6.06l45.25-40.04,129.47-114.58c1.09-.96,2.29-1.45,3.57-1.45M343.73,202.96c-2.11,0-4.28.74-6.22,2.46l-129.47,114.58-45.25,40.04c-6.54,5.78-2.48,16.58,6.25,16.62l77.24.35-31.28,65.16-32.33,67.33c-3.37,7.02,2.31,13.69,8.64,13.69,2.11,0,4.28-.74,6.22-2.45l175.91-155.46c6.55-5.79,2.48-16.62-6.27-16.63l-39.33-.09-38.3-.08,13.58-28.48,49.27-103.36c3.35-7.01-2.34-13.68-8.66-13.68h0Z" style="stroke-width: 0px;"/>
  </g>
</svg>