<?xml version="1.0" encoding="utf-8"?>
<!-- Generator: Adobe Illustrator 28.1.0, SVG Export Plug-In . SVG Version: 6.00 Build 0)  -->
<svg version="1.1" id="a" xmlns="http://www.w3.org/2000/svg" xmlns:xlink="http://www.w3.org/1999/xlink" x="0px" y="0px"
	 viewBox="0 0 715.6 516.2" style="enable-background:new 0 0 715.6 516.2;" xml:space="preserve">
<style type="text/css">
	.st0{fill:#FFFF00;stroke:#000000;stroke-width:4;stroke-miterlimit:10;}
	.st1{fill:#D3D3D3;stroke:#000000;stroke-width:4;stroke-miterlimit:10;}
</style>
<g id="sun">
	<g id="c">
		<path class="st0" d="M243.4,305.9c-13.6,5.1-25.9,12.6-36.6,22c-0.4-0.1-0.7-0.2-1.1-0.4c-52.1-18.2-79.6-75.2-61.4-127.4
			s75.2-79.6,127.4-61.4c23.4,8.2,41.9,24.2,53.4,44.1C277.7,203.9,244.4,251,243.4,305.9L243.4,305.9z"/>
	</g>
	<g id="d">
		<path class="st0" d="M447,116.3l-96.5-5.5l-11-93.1c-0.9-7.4-9.4-11-15.3-6.6l-77.5,57.8L178.4,4.6c-5.4-5.1-14.2-2.4-15.9,4.8
			l-22.2,94.1l-93.6-5.3c-7.4-0.4-12.5,7.3-9.1,13.9L81,198.4L5.9,254.5c-5.9,4.4-4.8,13.6,2,16.5l88.8,38.2l-21.5,91.3
			c-1.7,7.2,5,13.5,12.1,11.4l82.5-24.8c3.9-14.4,10.4-27.7,18.9-39.4c-59.4-25.9-89.7-93.6-68-155.8
			c22.8-65.2,94.1-99.6,159.2-76.8c31,10.8,55,32.6,69.2,59.5c10.2-2.4,20.8-3.7,31.7-3.7c15,0,29.4,2.4,42.9,6.8l30.6-46.7
			C458.5,124.9,454.3,116.7,447,116.3L447,116.3z M473.4,275.8l-4.2-3.9L403,209.5l6.4-9.7c-9.1-2.4-18.6-3.6-28.5-3.6
			c-7.6,0-15,0.8-22.1,2.2c7,24.1,6.9,50.5-2.1,76c-3,8.5-6.7,16.4-11.2,23.8c-5.6,9.3-12.4,17.7-20,25
			c-13.7,13.2-30.2,23-48.1,28.9c-8.1,2.6-16.4,4.5-25,5.4c-12.5,1.4-25.3,0.9-38.1-1.7c-12.3,14-20.6,31.7-22.9,51.1l30.7,60.9
			c3.3,6.6,12.6,7.1,16.6,0.9l42.8-65.3l10.2-15.5l18.9,8.1l0,0l55.3,23.8c0,0,0,0,0,0l11.9,5.1c5,2.1,10.2-0.2,12.4-4.5
			c0.8-1.6,1.2-3.5,0.9-5.4l-10.9-91.8l-0.5-4.2l69.3-20.8l11.1-3.4l9.4-2.8C476.7,289.9,478.8,280.9,473.4,275.8L473.4,275.8z"/>
	</g>
</g>
<path id="cloud" class="st1" d="M713.6,418.7c0,26.4-10.7,50.2-28,67.5c-17.3,17.3-41.2,28-67.5,28h-332
	c-52.7,0-95.5-42.8-95.5-95.5c0-4,0.2-7.9,0.7-11.8c2.4-19.5,10.6-37.1,22.9-51.1c1.4-1.6,2.8-3.1,4.3-4.6
	c7.3-7.3,15.8-13.5,25.2-18.1h0l0,0c0.6-0.3,1.1-0.6,1.7-0.8c7.6-3.6,15.7-6.2,24.3-7.7c-0.8-5.2-1.1-10.6-1.1-16.1
	c0-3.1,0.1-6.1,0.4-9.1c3.3-41.7,29.5-77,66-93.4c7.5-3.4,15.5-6,23.8-7.6c7.1-1.4,14.5-2.2,22.1-2.2c9.8,0,19.4,1.3,28.5,3.6
	c31.2,8.1,57.1,29.3,71.5,57.4c6-5.9,13.1-10.8,20.9-14.4c9.4-4.3,19.8-6.7,30.8-6.7c36.8,0,67.3,26.8,73,62c0.6,3.9,1,7.9,1,12
	c0,4.4-0.4,8.8-1.1,13h12.6C670.8,323.2,713.6,365.9,713.6,418.7L713.6,418.7z"/>
</svg>
