<?xml version="1.0" encoding="UTF-8"?>
<svg id="a" data-name="Layer 1" xmlns="http://www.w3.org/2000/svg" viewBox="0 0 715.59 516.17">
  <g id="b" data-name="Layer 2">
    <g id="c" data-name="center layer">
      <path d="M243.44,305.94c-13.55,5.12-25.92,12.62-36.63,21.98-.36-.11-.71-.24-1.07-.36-52.14-18.22-79.64-75.25-61.42-127.39,18.22-52.14,75.25-79.64,127.39-61.42,23.41,8.18,41.85,24.18,53.41,44.05-47.4,21.06-80.67,68.16-81.68,123.14Z" style="fill: #ff0; stroke: #000; stroke-miterlimit: 10; stroke-width: 4px;"/>
      <path d="M333.13,266.14c-4.23,12.09-10.54,22.85-18.39,32.03-9.1,10.63-20.26,19.13-32.65,25.09h-.01c-3.82,1.84-7.77,3.44-11.8,4.78-7.94,2.65-16.23,4.32-24.69,4.9-.6.04-1.2.08-1.81.1.56-.29,1.12-.56,1.69-.81,7.59-3.59,15.74-6.19,24.27-7.66-.76-5.25-1.15-10.61-1.15-16.07,0-3.07.12-6.11.37-9.11,3.34-41.74,29.51-77.04,66.01-93.42,5.41,19.1,5.21,40-1.84,60.17Z" style="fill: #ff0; stroke: #000; stroke-miterlimit: 10; stroke-width: 4px;"/>
    </g>
    <g id="d" data-name="outer layer">
      <path d="M446.97,116.26l-96.52-5.5-11.02-93.13c-.87-7.35-9.36-11-15.28-6.57l-77.47,57.83L178.38,4.62c-5.39-5.07-14.23-2.41-15.93,4.78l-22.18,94.1-93.63-5.33c-7.39-.42-12.45,7.31-9.12,13.91l43.5,86.34L5.86,254.52c-5.93,4.42-4.84,13.6,1.95,16.53l88.81,38.17-21.5,91.28c-1.7,7.21,5.04,13.54,12.12,11.41l82.54-24.83c3.89-14.37,10.37-27.68,18.92-39.38-59.42-25.87-89.7-93.6-67.98-155.78,22.77-65.17,94.06-99.55,159.23-76.77,31,10.83,55.03,32.63,69.25,59.53,10.18-2.41,20.8-3.68,31.72-3.68,14.98,0,29.4,2.4,42.9,6.82l30.63-46.7c4.05-6.19-.1-14.44-7.48-14.86ZM473.42,275.79l-4.17-3.92-66.24-62.33,6.38-9.73c-9.09-2.38-18.63-3.64-28.47-3.64-7.58,0-14.98.75-22.13,2.18,7.01,24.1,6.85,50.53-2.06,76.03-2.96,8.47-6.74,16.42-11.22,23.79-5.64,9.29-12.39,17.67-20.02,25-13.7,13.19-30.22,23.04-48.15,28.87-8.07,2.64-16.44,4.45-24.96,5.39-12.49,1.39-25.33.89-38.12-1.68-12.3,14.03-20.56,31.68-22.94,51.15l30.69,60.92c3.33,6.6,12.56,7.13,16.62.94l42.83-65.31,10.18-15.52,18.91,8.13h0l55.28,23.77s.03.01.04.01l11.92,5.12c4.96,2.13,10.24-.23,12.4-4.51.8-1.59,1.18-3.45.94-5.44l-10.86-91.84-.49-4.16,69.27-20.84,11.12-3.35,9.42-2.83c7.08-2.14,9.2-11.13,3.82-16.2Z" style="fill: #ff0; stroke: #000; stroke-miterlimit: 10; stroke-width: 4px;"/>
    </g>
  </g>
  <path d="M713.59,418.67c0,26.37-10.69,50.24-27.97,67.53-17.29,17.28-41.16,27.97-67.53,27.97h-332c-52.74,0-95.5-42.76-95.5-95.5,0-3.99.24-7.92.73-11.77,2.38-19.47,10.64-37.12,22.94-51.15,1.37-1.58,2.81-3.12,4.3-4.61,7.33-7.32,15.82-13.46,25.2-18.09h.01s.01-.01.01-.01c.56-.29,1.12-.56,1.69-.81,7.59-3.59,15.74-6.19,24.27-7.66-.76-5.25-1.15-10.61-1.15-16.07,0-3.07.12-6.11.37-9.11,5.59-.81,11.31-1.22,17.13-1.22h319.53c.64,3.9.97,7.91.97,12,0,4.44-.39,8.78-1.14,13h12.64c52.74,0,95.5,42.76,95.5,95.5Z" style="stroke-width: 0px;"/>
  <path d="M518.42,308.5c0,4.96-.26,9.85-.78,14.67-2.05,19.35-8.11,37.5-17.34,53.6-23.7,41.36-68.29,69.23-119.38,69.23-39.12,0-74.42-16.33-99.46-42.55-12.53-13.13-22.5-28.74-29.08-46.02-2.99-7.84-5.28-16.03-6.79-24.49-.05-.24-.09-.47-.12-.71,7.59-3.59,15.74-6.19,24.27-7.66-.76-5.25-1.15-10.61-1.15-16.07,0-3.07.12-6.11.37-9.11,3.34-41.74,29.51-77.04,66.01-93.42,7.54-3.39,15.51-5.96,23.82-7.62,7.15-1.43,14.55-2.18,22.13-2.18,9.84,0,19.38,1.26,28.47,3.64,31.18,8.14,57.08,29.34,71.51,57.41,6.04-5.91,13.1-10.79,20.88-14.35,9.06,16.65,14.78,35.38,16.26,55.3.25,3.41.38,6.86.38,10.33Z" style="stroke-width: 0px;"/>
  <path d="M713.59,418.67c0,26.37-10.69,50.24-27.97,67.53-17.29,17.28-41.16,27.97-67.53,27.97h-332c-52.74,0-95.5-42.76-95.5-95.5,0-3.99.24-7.92.73-11.77,2.38-19.47,10.64-37.12,22.94-51.15,1.37-1.58,2.81-3.12,4.3-4.61,7.33-7.32,15.82-13.46,25.2-18.09h.01s.01-.01.01-.01c.56-.29,1.12-.56,1.69-.81,7.59-3.59,15.74-6.19,24.27-7.66-.76-5.25-1.15-10.61-1.15-16.07,0-3.07.12-6.11.37-9.11,3.34-41.74,29.51-77.04,66.01-93.42,7.54-3.39,15.51-5.96,23.82-7.62,7.15-1.43,14.55-2.18,22.13-2.18,9.84,0,19.38,1.26,28.47,3.64,31.18,8.14,57.08,29.34,71.51,57.41,6.04-5.91,13.1-10.79,20.88-14.35,9.38-4.3,19.81-6.7,30.81-6.7,36.78,0,67.3,26.84,73.03,62,.64,3.9.97,7.91.97,12,0,4.44-.39,8.78-1.14,13h12.64c52.74,0,95.5,42.76,95.5,95.5Z" style="fill: #29abe2; stroke: #000; stroke-miterlimit: 10; stroke-width: 4px;"/>
</svg>