<?xml version="1.0" encoding="UTF-8"?>
<svg id="a" xmlns="http://www.w3.org/2000/svg" viewBox="0 0 527 518.77">
  <defs>
    <style>
      .cls-1 {
        fill: #a9a9a9;
        stroke-miterlimit: 10;
        stroke-width: 4px;
      }

      .cls-1, .cls-2 {
        stroke: #000;
      }

      .cls-2 {
        fill: gray;
        stroke-miterlimit: 10;
        stroke-width: 4px;
      }
    </style>
  </defs>
  <path id="cloud" class="cls-2" d="M525,224.5c0,26.37-10.69,50.24-27.97,67.53-17.29,17.28-41.16,27.97-67.53,27.97H97.5c-52.74,0-95.5-42.76-95.5-95.5,0-3.99.24-7.92.73-11.77,2.38-19.47,10.64-37.12,22.94-51.15,1.37-1.58,2.81-3.12,4.3-4.61,7.33-7.32,15.82-13.46,25.2-18.09h.02c.56-.3,1.12-.57,1.69-.82,7.59-3.59,15.74-6.19,24.27-7.66-.76-5.25-1.15-10.61-1.15-16.07,0-3.07.12-6.11.37-9.11,3.34-41.74,29.51-77.04,66.01-93.42,7.54-3.39,15.51-5.96,23.82-7.62,7.15-1.43,14.55-2.18,22.13-2.18,9.84,0,19.38,1.26,28.47,3.64,31.18,8.14,57.08,29.34,71.51,57.41,6.04-5.91,13.1-10.79,20.88-14.35,9.38-4.3,19.81-6.7,30.81-6.7,36.78,0,67.3,26.84,73.03,62,.64,3.9.97,7.91.97,12,0,4.44-.39,8.78-1.14,13h12.64c52.74,0,95.5,42.76,95.5,95.5Z"/>
  <g id="rain">
    <rect class="cls-1" x="-32.22" y="414.13" width="173.66" height="40.01" rx="20" ry="20" transform="translate(-371.28 333.77) rotate(-69.57)"/>
    <rect class="cls-1" x="343.69" y="414.12" width="173.66" height="40.01" rx="20" ry="20" transform="translate(-126.58 686.03) rotate(-69.57)"/>
    <rect class="cls-1" x="218.39" y="414.12" width="173.66" height="40.01" rx="20" ry="20" transform="translate(-208.14 568.61) rotate(-69.57)"/>
    <rect class="cls-1" x="93.08" y="414.13" width="173.66" height="40.01" rx="20" ry="20" transform="translate(-289.71 451.19) rotate(-69.57)"/>
  </g>
</svg>